<?xml version="1.0" encoding="UTF-8" standalone="no"?>
<!-- Created with Inkscape (http://www.inkscape.org/) -->

<svg
   xmlns:dc="http://purl.org/dc/elements/1.1/"
   xmlns:cc="http://creativecommons.org/ns#"
   xmlns:rdf="http://www.w3.org/1999/02/22-rdf-syntax-ns#"
   xmlns:svg="http://www.w3.org/2000/svg"
   xmlns="http://www.w3.org/2000/svg"
   xmlns:sodipodi="http://sodipodi.sourceforge.net/DTD/sodipodi-0.dtd"
   xmlns:inkscape="http://www.inkscape.org/namespaces/inkscape"
   width="151mm"
   height="63mm"
   viewBox="0 0 151 63"
   version="1.1"
   id="svg8"
   inkscape:version="0.92.4 (f8dce91, 2019-08-02)"
   sodipodi:docname="itambe2.svg">
  <defs
     id="defs2" />
  <sodipodi:namedview
     id="base"
     pagecolor="#ffffff"
     bordercolor="#666666"
     borderopacity="1.0"
     inkscape:pageopacity="0.0"
     inkscape:pageshadow="2"
     inkscape:zoom="0.98994949"
     inkscape:cx="176.81813"
     inkscape:cy="179.60833"
     inkscape:document-units="mm"
     inkscape:current-layer="layer1"
     showgrid="false"
     width="15mm"
     height="151mm"
     inkscape:window-width="1920"
     inkscape:window-height="1025"
     inkscape:window-x="0"
     inkscape:window-y="27"
     inkscape:window-maximized="1" />
  <metadata
     id="metadata5">
    <rdf:RDF>
      <cc:Work
         rdf:about="">
        <dc:format>image/svg+xml</dc:format>
        <dc:type
           rdf:resource="http://purl.org/dc/dcmitype/StillImage" />
        <dc:title></dc:title>
      </cc:Work>
    </rdf:RDF>
  </metadata>
  <g
     inkscape:label="Layer 1"
     inkscape:groupmode="layer"
     id="layer1"
     transform="translate(0,-234)">
    <g
       id="g5035"
       transform="matrix(0.98743478,0,0,0.98743478,42.51016,222.79917)"
       style="opacity:0.55">
      <path
         style="fill:none;fill-rule:evenodd;stroke-width:0.93749994"
         id="path2993"
         d="m -27.602235,38.257757 0.05391,19.893562 c 0.192469,5.553843 6.27525,5.659781 6.626813,0.422906 l -0.02447,-20.105624 c 0.249937,-5.178844 -6.511781,-5.389969 -6.65625,-0.210844 z"
         inkscape:connector-curvature="0" />
      <ellipse
         style="fill:none;fill-rule:evenodd;stroke-width:0.93749994"
         id="ellipse2995"
         ry="3.592931"
         rx="3.5400937"
         cy="29.090878"
         cx="-24.249548" />
      <path
         style="fill:none;fill-rule:evenodd;stroke-width:0.93749994"
         id="path2997"
         d="m -17.116298,58.415881 c 0.473532,5.187469 6.33825,4.163063 6.340406,0 V 40.503913 h 4.9668752 c 2.9690624,-0.885937 2.6520936,-5.324344 0,-5.706562 h -4.8611252 v -6.23475 c 0.09581,-3.313219 -5.963062,-4.026656 -6.446156,0 z"
         inkscape:connector-curvature="0" />
      <path
         style="fill:none;fill-rule:evenodd;stroke-width:0.93749994"
         id="path2999"
         d="M 14.587233,57.631194 C 16.416389,60.309912 12.183201,64.77035 8.4040452,60.000725 -12.701142,71.044568 -14.561985,34.381476 13.059576,34.715038 l -0.0585,20.476781 z"
         inkscape:connector-curvature="0" />
      <path
         style="fill:none;fill-rule:evenodd;stroke-width:0.93749994"
         id="path3001"
         d="m 5.9208891,53.712444 c -8.6610935,6.134625 -10.0349997,-7.392187 0,-10.461937 z"
         inkscape:connector-curvature="0" />
      <path
         style="fill:none;fill-rule:evenodd;stroke-width:0.93749994"
         id="path3003"
         d="m 16.461482,37.412132 c -1.475906,-2.875688 1.283532,-6.984094 5.225157,-4.584094 l 3.281812,3.844594"
         inkscape:connector-curvature="0" />
      <path
         style="fill:none;fill-rule:evenodd;stroke-width:0.93749994"
         id="path3005"
         d="m 24.968451,36.672444 0.592875,0.794625 c 3.201375,-3.961031 7.909875,-4.139343 10.60875,0.420563 1.253062,-4.035281 8.685937,-4.880813 9.828093,0.211406 v 20.395593 c 0.06713,4.952344 -6.731531,4.529906 -6.763406,0 V 42.53735 c -0.06009,-2.818124 -3.476719,-2.659781 -3.434531,0 v 16.062937 c -0.402844,4.474125 -6.725719,4.526532 -7.080375,0 V 42.378725 c -0.05634,-2.941593 -3.472875,-3.047062 -3.751406,0 V 58.8116 c -0.404719,4.615968 -6.692437,4.140562 -6.816094,0 V 39.419882 l -1.690875,-2.007938"
         inkscape:connector-curvature="0" />
      <path
         style="fill:none;fill-rule:evenodd;stroke-width:0.93749994"
         id="path3007"
         d="m 56.249169,35.879319 -0.05278,-8.189906 c -1.110656,-3.735281 -5.196843,-3.153937 -5.917687,0 v 32.019562 c -0.1215,2.558437 1.626938,2.99625 6.354562,1.471406 4.8,-1.505906 10.617094,-5.812687 12.483656,-11.233125 C 72.657574,39.664476 66.9812,31.505695 56.249169,35.879319"
         inkscape:connector-curvature="0" />
      <path
         style="fill:none;fill-rule:evenodd;stroke-width:0.93749994"
         id="path3009"
         d="m 56.408544,43.171194 c 6.391968,-8.447343 12.338624,6.12375 0,9.880594 z"
         inkscape:connector-curvature="0" />
      <path
         style="fill:none;fill-rule:evenodd;stroke-width:0.93749994"
         id="path3011"
         d="M 90.64698,55.852756 80.079293,55.799787 C 92.841386,52.6526 93.272918,48.743788 93.270574,43.49285 93.266824,35.634726 81.661887,32.326007 75.402199,39.557226 69.371918,46.5236 69.4802,56.646725 78.494355,61.770444 H 90.64698 c 3.022312,0.140437 2.943,-6.164719 0,-5.917688 z"
         inkscape:connector-curvature="0" />
      <path
         style="fill:none;fill-rule:evenodd;stroke-width:0.93749994"
         id="path3013"
         d="m 77.411356,49.961506 c -0.5445,-6.164999 6.042468,-10.127905 9.616499,-7.608843 2.248781,4.159969 -4.021125,8.069906 -9.616499,7.608843 z"
         inkscape:connector-curvature="0" />
      <path
         style="fill:none;fill-rule:evenodd;stroke-width:0.93749994"
         id="path3015"
         d="m 82.986668,25.84057 c 4.900968,-1.974938 7.13775,2.8335 3.85725,5.230875 l -6.763313,3.381562 c -3.140999,1.487437 -6.634499,-2.896781 -3.017812,-5.476312 z"
         inkscape:connector-curvature="0" />
      <path
         style="fill:#000000;fill-opacity:0.36078431;fill-rule:evenodd;stroke-width:0.93749994"
         id="path3017"
         d="m -20.921516,58.574319 -0.02447,-20.105625 c 0.249937,-5.178843 -6.511781,-5.389968 -6.65625,-0.210843 l 0.05391,19.893561 c 0.192469,5.553844 6.27525,5.659781 6.626813,0.422907 z"
         inkscape:connector-curvature="0" />
      <path
         style="fill:#000000;fill-opacity:0.36078431;fill-rule:evenodd;stroke-width:0.93749994"
         id="path3019"
         d="m -27.789641,29.090882 c 0,1.984219 1.584937,3.592875 3.54,3.592875 1.95525,0 3.540187,-1.608656 3.540187,-3.592875 0,-1.984312 -1.584937,-3.592969 -3.540187,-3.592969 -1.955063,0 -3.54,1.608657 -3.54,3.592969 z"
         inkscape:connector-curvature="0" />
      <path
         style="fill:#000000;fill-opacity:0.36078431;fill-rule:evenodd;stroke-width:0.93749994"
         id="path3021"
         d="m -17.116298,28.562132 v 29.85328 c 0.473532,5.187469 6.33825,4.163063 6.340406,0 V 40.503444 h 4.9668752 c 2.9690624,-0.885937 2.6520936,-5.324343 0,-5.706562 h -4.8611252 v -6.23475 c 0.09581,-3.313219 -5.963062,-4.026656 -6.446156,0 z"
         inkscape:connector-curvature="0" />
      <path
         style="fill:#000000;fill-opacity:0.36078431;fill-rule:evenodd;stroke-width:0.93749994"
         id="path3023"
         d="M 13.059576,34.714944 C -14.561985,34.381382 -12.701142,71.044475 8.4040452,60.000631 12.183201,64.770256 16.416389,60.309819 14.587233,57.6311 l -1.586157,-2.439375 z m -7.1386869,18.9975 c -8.6610935,6.134625 -10.0349997,-7.392187 0,-10.461937 z"
         inkscape:connector-curvature="0" />
      <path
         style="fill:#000000;fill-opacity:0.36078431;fill-rule:evenodd;stroke-width:0.93749994"
         id="path3025"
         d="m 18.152357,39.420257 v 19.391718 c 0.123657,4.140562 6.411375,4.615968 6.816094,0 V 42.3791 c 0.278531,-3.047062 3.695062,-2.941593 3.751406,0 v 16.221562 c 0.354656,4.526532 6.677531,4.474125 7.080375,0 V 42.537725 c -0.04219,-2.659781 3.374437,-2.818124 3.434531,0 v 15.957281 c 0.03187,4.529906 6.830531,4.952344 6.763406,0 V 38.099413 c -1.142156,-5.092219 -8.575031,-4.246687 -9.828093,-0.211406 -2.698875,-4.559906 -7.407375,-4.381594 -10.60875,-0.420563 l -0.592875,-0.794625 -3.281812,-3.844593 c -3.941625,-2.4 -6.701063,1.708406 -5.225157,4.584093 z"
         inkscape:connector-curvature="0" />
      <path
         style="fill:#000000;fill-opacity:0.36078431;fill-rule:evenodd;stroke-width:0.93749994"
         id="path3027"
         d="m 50.278231,27.690257 v 32.019562 c -0.1215,2.558437 1.626938,2.99625 6.354563,1.471406 4.8,-1.505906 10.617093,-5.812687 12.483656,-11.233125 C 72.657106,39.665319 66.980731,31.506538 56.2487,35.880163 l -0.05278,-8.189906 c -1.110657,-3.735281 -5.196844,-3.153937 -5.917688,0 z m 6.129563,15.4815 c 6.391968,-8.447344 12.338624,6.123749 0,9.880593 z"
         inkscape:connector-curvature="0" />
      <path
         style="fill:#000000;fill-opacity:0.36078431;fill-rule:evenodd;stroke-width:0.93749994"
         id="path3029"
         d="m 75.402293,39.557132 c -6.030281,6.966375 -5.922,17.089499 3.092156,22.213218 h 12.152625 c 3.022312,0.140437 2.943,-6.164719 0,-5.917688 L 80.079387,55.799694 C 92.84148,52.652506 93.273011,48.743694 93.270668,43.492757 93.266918,35.634632 81.66198,32.325913 75.402293,39.557132 Z m 2.008969,10.404187 c -0.5445,-6.165 6.042468,-10.127906 9.616499,-7.608844 2.248782,4.159969 -4.021124,8.069906 -9.616499,7.608844 z"
         inkscape:connector-curvature="0" />
      <path
         style="fill:#000000;fill-opacity:0.36078431;fill-rule:evenodd;stroke-width:0.93749994"
         id="path3031"
         d="M 80.080418,34.453382 86.84373,31.07182 c 3.2805,-2.397375 1.043719,-7.205813 -3.85725,-5.230875 l -5.923874,3.136125 c -3.616688,2.579531 -0.123188,6.963749 3.017812,5.476312 z"
         inkscape:connector-curvature="0" />
    </g>
  </g>
  <style
     id="style1600"
     type="text/css">
	.st0{opacity:0.2;}
	.st1{fill:#FFFFFF;}
</style>
  <style
     id="style1743"
     type="text/css">
	.st0{opacity:0.2;}
	.st1{fill:#FFFFFF;}
</style>
</svg>
