<?xml version="1.0" encoding="UTF-8" standalone="no"?>
<!-- Created with Inkscape (http://www.inkscape.org/) -->

<svg
   xmlns:dc="http://purl.org/dc/elements/1.1/"
   xmlns:cc="http://creativecommons.org/ns#"
   xmlns:rdf="http://www.w3.org/1999/02/22-rdf-syntax-ns#"
   xmlns:svg="http://www.w3.org/2000/svg"
   xmlns="http://www.w3.org/2000/svg"
   xmlns:sodipodi="http://sodipodi.sourceforge.net/DTD/sodipodi-0.dtd"
   xmlns:inkscape="http://www.inkscape.org/namespaces/inkscape"
   width="90mm"
   height="37mm"
   viewBox="0 0 90 37"
   version="1.1"
   id="svg8"
   inkscape:version="0.92.4 (f8dce91, 2019-08-02)"
   sodipodi:docname="skol2.svg">
  <defs
     id="defs2">
    <style
       id="style2989"
       type="text/css" />
    <radialGradient
       r="1"
       cy="0.44999999"
       cx="0.44999999"
       id="grad1">
      <stop
         id="stop4429"
         stop-opacity="1.0000"
         stop-color="#009ee0"
         offset="0%" />
      <stop
         id="stop4431"
         stop-opacity="1.0000"
         stop-color="#0068b1"
         offset="100%" />
    </radialGradient>
    <radialGradient
       r="0.95999998"
       cy="0.38999999"
       cx="0.38999999"
       id="grad2">
      <stop
         id="stop4438"
         stop-opacity="1.0000"
         stop-color="#9edbf4"
         offset="0%" />
      <stop
         id="stop4440"
         stop-opacity="1.0000"
         stop-color="#008bd0"
         offset="100%" />
    </radialGradient>
    <radialGradient
       r="1"
       cy="0.49000001"
       cx="0.49000001"
       id="grad3">
      <stop
         id="stop4447"
         stop-opacity="1.0000"
         stop-color="#008bd0"
         offset="0%" />
      <stop
         id="stop4449"
         stop-opacity="1.0000"
         stop-color="#102a83"
         offset="100%" />
    </radialGradient>
    <radialGradient
       r="1"
       cy="0.45500001"
       cx="0.45500001"
       id="grad4">
      <stop
         id="stop4456"
         stop-opacity="1.0000"
         stop-color="#9edbf4"
         offset="0%" />
      <stop
         id="stop4458"
         stop-opacity="1.0000"
         stop-color="#009ee0"
         offset="100%" />
    </radialGradient>
    <radialGradient
       r="1"
       cy="0.47999999"
       cx="0.47999999"
       id="grad5">
      <stop
         id="stop4465"
         stop-opacity="1.0000"
         stop-color="#009ee0"
         offset="0%" />
      <stop
         id="stop4467"
         stop-opacity="1.0000"
         stop-color="#102a83"
         offset="100%" />
    </radialGradient>
    <radialGradient
       r="1"
       cy="0.38999999"
       cx="0.38999999"
       id="grad6">
      <stop
         id="stop4474"
         stop-opacity="1.0000"
         stop-color="#9edbf4"
         offset="0%" />
      <stop
         id="stop4476"
         stop-opacity="1.0000"
         stop-color="#008bd0"
         offset="100%" />
    </radialGradient>
    <radialGradient
       r="1"
       cy="0.41999999"
       cx="0.41999999"
       id="grad7">
      <stop
         id="stop4483"
         stop-opacity="1.0000"
         stop-color="#008bd0"
         offset="0%" />
      <stop
         id="stop4485"
         stop-opacity="1.0000"
         stop-color="#102a83"
         offset="100%" />
    </radialGradient>
    <radialGradient
       r="0.60000002"
       cy="0.44"
       cx="0.44"
       id="grad8">
      <stop
         id="stop4492"
         stop-opacity="1.0000"
         stop-color="#9edbf4"
         offset="0%" />
      <stop
         id="stop4494"
         stop-opacity="1.0000"
         stop-color="#009ee0"
         offset="100%" />
    </radialGradient>
    <defs
       id="defs4434">
      <radialGradient
         id="radialGradient4554"
         cx="0.44999999"
         cy="0.44999999"
         r="1">
        <stop
           offset="0%"
           stop-color="#009ee0"
           stop-opacity="1.0000"
           id="stop4550" />
        <stop
           offset="100%"
           stop-color="#0068b1"
           stop-opacity="1.0000"
           id="stop4552" />
      </radialGradient>
    </defs>
    <defs
       id="defs4443">
      <radialGradient
         id="radialGradient4562"
         cx="0.38999999"
         cy="0.38999999"
         r="0.95999998">
        <stop
           offset="0%"
           stop-color="#9edbf4"
           stop-opacity="1.0000"
           id="stop4558" />
        <stop
           offset="100%"
           stop-color="#008bd0"
           stop-opacity="1.0000"
           id="stop4560" />
      </radialGradient>
    </defs>
    <defs
       id="defs4452">
      <radialGradient
         id="radialGradient4570"
         cx="0.49000001"
         cy="0.49000001"
         r="1">
        <stop
           offset="0%"
           stop-color="#008bd0"
           stop-opacity="1.0000"
           id="stop4566" />
        <stop
           offset="100%"
           stop-color="#102a83"
           stop-opacity="1.0000"
           id="stop4568" />
      </radialGradient>
    </defs>
    <defs
       id="defs4461">
      <radialGradient
         id="radialGradient4578"
         cx="0.45500001"
         cy="0.45500001"
         r="1">
        <stop
           offset="0%"
           stop-color="#9edbf4"
           stop-opacity="1.0000"
           id="stop4574" />
        <stop
           offset="100%"
           stop-color="#009ee0"
           stop-opacity="1.0000"
           id="stop4576" />
      </radialGradient>
    </defs>
    <defs
       id="defs4470">
      <radialGradient
         id="radialGradient4586"
         cx="0.47999999"
         cy="0.47999999"
         r="1">
        <stop
           offset="0%"
           stop-color="#009ee0"
           stop-opacity="1.0000"
           id="stop4582" />
        <stop
           offset="100%"
           stop-color="#102a83"
           stop-opacity="1.0000"
           id="stop4584" />
      </radialGradient>
    </defs>
    <defs
       id="defs4479">
      <radialGradient
         id="radialGradient4594"
         cx="0.38999999"
         cy="0.38999999"
         r="1">
        <stop
           offset="0%"
           stop-color="#9edbf4"
           stop-opacity="1.0000"
           id="stop4590" />
        <stop
           offset="100%"
           stop-color="#008bd0"
           stop-opacity="1.0000"
           id="stop4592" />
      </radialGradient>
    </defs>
    <defs
       id="defs4488">
      <radialGradient
         id="radialGradient4602"
         cx="0.41999999"
         cy="0.41999999"
         r="1">
        <stop
           offset="0%"
           stop-color="#008bd0"
           stop-opacity="1.0000"
           id="stop4598" />
        <stop
           offset="100%"
           stop-color="#102a83"
           stop-opacity="1.0000"
           id="stop4600" />
      </radialGradient>
    </defs>
    <defs
       id="defs4497">
      <radialGradient
         id="radialGradient4610"
         cx="0.44"
         cy="0.44"
         r="0.60000002">
        <stop
           offset="0%"
           stop-color="#9edbf4"
           stop-opacity="1.0000"
           id="stop4606" />
        <stop
           offset="100%"
           stop-color="#009ee0"
           stop-opacity="1.0000"
           id="stop4608" />
      </radialGradient>
    </defs>
    <style
       id="style2989-5"
       type="text/css" />
    <clipPath
       clipPathUnits="userSpaceOnUse"
       id="clipPath16058">
      <path
         d="M 0,0 H 598.11 V 737.008 H 0 Z"
         id="path16060"
         inkscape:connector-curvature="0" />
    </clipPath>
    <clipPath
       clipPathUnits="userSpaceOnUse"
       id="clipPath16034">
      <path
         d="M 0,0 H 598.11 V 737.008 H 0 Z"
         id="path16036"
         inkscape:connector-curvature="0" />
    </clipPath>
    <clipPath
       clipPathUnits="userSpaceOnUse"
       id="clipPath15990">
      <path
         d="M 0,0 H 598.11 V 737.008 H 0 Z"
         id="path15992"
         inkscape:connector-curvature="0" />
    </clipPath>
    <clipPath
       clipPathUnits="userSpaceOnUse"
       id="clipPath15906">
      <path
         d="M 0,0 H 598.11 V 737.008 H 0 Z"
         id="path15908"
         inkscape:connector-curvature="0" />
    </clipPath>
  </defs>
  <sodipodi:namedview
     id="base"
     pagecolor="#ffffff"
     bordercolor="#666666"
     borderopacity="1.0"
     inkscape:pageopacity="0.0"
     inkscape:pageshadow="2"
     inkscape:zoom="1.4"
     inkscape:cx="44.523293"
     inkscape:cy="82.059369"
     inkscape:document-units="mm"
     inkscape:current-layer="layer3"
     showgrid="false"
     width="15mm"
     height="151mm"
     inkscape:window-width="1920"
     inkscape:window-height="1025"
     inkscape:window-x="0"
     inkscape:window-y="27"
     inkscape:window-maximized="1" />
  <metadata
     id="metadata5">
    <rdf:RDF>
      <cc:Work
         rdf:about="">
        <dc:format>image/svg+xml</dc:format>
        <dc:type
           rdf:resource="http://purl.org/dc/dcmitype/StillImage" />
        <dc:title></dc:title>
      </cc:Work>
    </rdf:RDF>
  </metadata>
  <g
     inkscape:label="Layer 1"
     inkscape:groupmode="layer"
     id="layer1"
     transform="translate(0,-260)" />
  <g
     inkscape:groupmode="layer"
     id="layer3"
     inkscape:label="Layer 3"
     transform="translate(0,-26)">
    <g
       id="g8014"
       transform="matrix(1.0145557,0,0,1.0145557,12.267701,31.745577)"
       style="fill:#000000;fill-opacity:0.2">
      <path
         inkscape:connector-curvature="0"
         d="m 64.255406,17.265167 c -1.416,0.26855 -4.05125,0.390625 -4.05125,0.390625 l 3.392,-16.0083002 c 0,0 0.329625,-0.97662497 -1.086375,-1.02537497 -1.414625,-0.04888 -5.40525,0 -5.40525,0 0,0 0.476,1.23287497 0.09763,3.16062497 -0.378375,1.92725 -2.86725,14.3369122 -2.86725,14.3369122 0,0 -0.54925,2.452638 -1.477,3.734375 l 12.44625,-0.122075 c 0.122125,0 2.952625,-5.954587 2.952625,-5.954587 0,0 -2.586375,1.219237 -4.001375,1.4878"
         style="fill:#000000;fill-opacity:0.2;fill-rule:nonzero;stroke:none"
         id="path36" />
      <path
         inkscape:connector-curvature="0"
         d="m 45.146531,21.578154 c 0.957,-0.323737 8.6245,-3.185062 9.167375,-12.0800372 0.4615,-7.5415 -6.458375,-10.705625 -11.680625,-9.08399997 -4.753375,1.47649997 -8.395,5.21037497 -9.305625,9.84812517 -0.911625,4.636225 1.398875,7.483875 1.398875,7.483875 0,0 -0.982375,-3.794912 1.481,-8.3115002 3.96725,-7.28025 13.269,-5.673875 11.84325,0.8765002 -0.775375,3.55805 -3.96975,5.187937 -3.96975,5.187937 l -0.0805,-0.06348 0.813,-3.661087 -8.94775,7.517037 c 4.700625,5.612795 12.25825,5.478518 12.25825,5.478518 -1.3565,-0.95068 -2.692875,-2.65723 -3.006875,-3.068843 l 0.02938,-0.12305"
         style="fill:#000000;fill-opacity:0.2;fill-rule:nonzero;stroke:none"
         id="path38" />
      <path
         inkscape:connector-curvature="0"
         d="m 32.367156,17.957542 -3.855,-7.28905 c 0,0 6.2305,-6.9467502 7.5,-8.2812502 1.268125,-1.334 2.049375,-1.58549997 2.049375,-1.58549997 h -6.63825 C 31.358901,1.1851168 31.032656,1.5253668 31.032656,1.5253668 l -6.929625,7.9395 c 0,0 1.132375,-5.5625 1.431125,-7.207 0.254375,-1.39987497 -0.59375,-1.45612497 -0.992125,-1.45612497 -0.3985,0 -5.287625,0 -5.287625,0 0.26075,1.07424997 0.0815,2.83787497 0.0815,2.83787497 0,0 -2.522,12.6260372 -3.0425,15.0332622 -0.5205,2.4082 -1.366625,3.303225 -1.366625,3.303225 0,0 4.79925,0 5.824625,0 1.025,0 1.154875,-1.0254 1.154875,-1.0254 l 1.432125,-7.8579 3.09025,6.132813 c 0,0 1.49375,3.056637 4.994625,3.5791 3.65725,0.546875 4.833125,-0.389163 4.833125,-0.389163 -1.481,-0.650875 -3.88925,-4.458012 -3.88925,-4.458012"
         style="fill:#000000;fill-opacity:0.2;fill-rule:nonzero;stroke:none"
         id="path40" />
      <path
         inkscape:connector-curvature="0"
         d="m 10.729494,8.7812418 c -2.2919877,-1.643 -3.0683627,-2.620625 -2.6450252,-3.960875 0.3505875,-1.11475 1.6484375,-2.077625 3.7841872,-1.70075 2.0645,0.36525 3.888125,2.912625 3.888125,2.912625 l 1.133875,-4.90575 C 13.403281,-0.05275817 10.981444,0.15874183 9.9809563,0.20799183 8.9804684,0.25687183 3.3535188,1.1982418 2.3740188,5.9907418 c -0.8139625,3.9785 1.8486375,5.7607502 3.8974625,7.2158252 0.7417,0.525887 3.627938,2.0337 2.7939501,4.667975 -0.2519501,0.7959 -1.0556626,1.369625 -2.3544876,1.389162 -3.3671875,0.05126 -5.0517625,-3.535162 -5.0517625,-3.535162 L 0,21.316917 c 7.5893563,3.050297 14.227531,0.870125 15.230906,-4.645988 0.749125,-4.113812 -2.02875,-6.115687 -4.501412,-7.8896872"
         style="fill:#000000;fill-opacity:0.2;fill-rule:nonzero;stroke:none"
         id="path42" />
    </g>
  </g>
  <g
     inkscape:groupmode="layer"
     id="layer4"
     inkscape:label="Layer 4" />
  <g
     inkscape:groupmode="layer"
     id="layer2"
     inkscape:label="Layer 2"
     transform="translate(0,-26)" />
  <style
     id="style1600"
     type="text/css">
	.st0{opacity:0.2;}
	.st1{fill:#FFFFFF;}
</style>
  <style
     id="style1743"
     type="text/css">
	.st0{opacity:0.2;}
	.st1{fill:#FFFFFF;}
</style>
  <style
     id="style2949"
     type="text/css">
	.st0{opacity:0.2;}
</style>
  <style
     id="style6749"
     type="text/css">
	.st0{opacity:0.2;}
</style>
</svg>
