<?xml version="1.0" encoding="UTF-8" standalone="no"?>
<!-- Created with Inkscape (http://www.inkscape.org/) -->

<svg
   xmlns:dc="http://purl.org/dc/elements/1.1/"
   xmlns:cc="http://creativecommons.org/ns#"
   xmlns:rdf="http://www.w3.org/1999/02/22-rdf-syntax-ns#"
   xmlns:svg="http://www.w3.org/2000/svg"
   xmlns="http://www.w3.org/2000/svg"
   xmlns:sodipodi="http://sodipodi.sourceforge.net/DTD/sodipodi-0.dtd"
   xmlns:inkscape="http://www.inkscape.org/namespaces/inkscape"
   width="151mm"
   height="63mm"
   viewBox="0 0 151 63"
   version="1.1"
   id="svg8"
   inkscape:version="0.92.4 (f8dce91, 2019-08-02)"
   sodipodi:docname="gutwork.svg">
  <defs
     id="defs2" />
  <sodipodi:namedview
     id="base"
     pagecolor="#ffffff"
     bordercolor="#666666"
     borderopacity="1.0"
     inkscape:pageopacity="0.0"
     inkscape:pageshadow="2"
     inkscape:zoom="0.7"
     inkscape:cx="207.53453"
     inkscape:cy="179.60833"
     inkscape:document-units="mm"
     inkscape:current-layer="layer1"
     showgrid="false"
     width="15mm"
     height="151mm"
     inkscape:window-width="1920"
     inkscape:window-height="1025"
     inkscape:window-x="0"
     inkscape:window-y="27"
     inkscape:window-maximized="1" />
  <metadata
     id="metadata5">
    <rdf:RDF>
      <cc:Work
         rdf:about="">
        <dc:format>image/svg+xml</dc:format>
        <dc:type
           rdf:resource="http://purl.org/dc/dcmitype/StillImage" />
        <dc:title></dc:title>
      </cc:Work>
    </rdf:RDF>
  </metadata>
  <g
     inkscape:label="Layer 1"
     inkscape:groupmode="layer"
     id="layer1"
     transform="translate(0,-234)">
    <g
       id="g1928"
       transform="matrix(0.39863852,0,0,0.39863852,-4.1155218,206.83592)"
       style="fill:#000000;fill-opacity:0.2">
      <path
         d="m 157.504,194.693 c -13.954,-8.988 -32.891,-10.564 -63.432,-2.094 -32.559,7.651 -43.413,12.557 -57.67,2.711 -5.477,-4.836 -7.439,-12.623 -5.974,-23.84 3.4,-18.287 12.591,-35.884 28.915,-55.404 9.112,-10.154 17.564,-18.868 28.725,-22.367 8.554,-2.195 7.755,4.527 6.72,5.488 -1.093,0 -2.927,0.172 -4.345,1.098 -1.151,0.894 -4.311,3.774 -4.479,7.651 -0.245,5.934 5.897,4.699 8.546,1.441 2.855,-3.672 7.074,-10.703 3.756,-17.256 -1.392,-2.333 -3.796,-3.944 -6.781,-4.494 -10.219,-0.583 -19.737,4.288 -28.521,9.673 -19.21,13.345 -34.577,31.837 -43.272,52.078 -5.014,12.213 -9.547,29.706 -2.75,43.943 5.257,9.879 16.172,15.127 29.192,14.031 9.132,-0.961 20.175,-3.912 27.603,-5.695 7.429,-1.784 45.448,-14.854 57.94,7.893 0,0 4.154,-8.063 14.536,-8.236 8.535,-0.787 20.848,2.473 29.814,9.058 -2.988,-4.493 -11.457,-11.114 -18.523,-15.679 z"
         id="c_1_"
         inkscape:connector-curvature="0"
         style="fill:#000000;fill-opacity:0.2" />
      <path
         d="m 97.95,118.366 c -7.111,-4.666 -21.403,4.253 -32.851,19.553 -10.469,13.724 -14.988,29.675 -10.069,37.05 7.317,8.678 20.901,-3.943 26.679,-10.701 l 0.746,-0.791 c 3.928,-4.219 6.963,-9.297 9.9,-14.168 0,0 2.699,-4.46 2.828,-4.666 1.67,-0.308 3.68,-0.788 5.944,-1.44 -0.032,0.103 -8.666,14.615 -7.785,21.818 0.274,2.197 0.064,10.226 7.902,12.66 10.446,1.75 18.787,-6.348 26.145,-13.553 0,0 1.255,-1.199 1.964,-1.883 -0.18,0.717 -0.414,1.677 -0.414,1.677 -3.058,10.636 1.064,12.866 3.644,13.688 7.793,2.267 17.103,-9.057 17.133,-9.057 -0.241,3.567 -0.946,6.518 2.813,8.885 3.548,1.27 7.139,-0.666 9.869,-2.484 9.832,-6.93 17.752,-17.773 24.15,-27.149 h -4.081 c -0.048,0 -10.069,14.525 -16.578,17.682 -0.01,0 -1.194,0.609 -1.876,0.127 -0.845,-0.721 -0.512,-2.219 0.01,-3.28 0.033,-0.067 25.128,-43.591 25.128,-43.591 h -11.849 c 0,0 -1.295,2.094 -1.399,2.23 -0.08,-0.067 -0.27,-0.428 -0.401,-0.601 -7.341,-10.154 -23.964,5.465 -36.479,23.578 -4.819,6.965 -10.954,14.806 -17.314,20.466 0,0 -9.423,8.64 -13.45,2.433 -1.472,-2.607 -1.019,-6.422 -0.188,-8.924 4.688,-13.345 12.766,-25.456 21.958,-32.765 2.595,-2.021 5.416,-2.606 6.814,-1.749 1.333,0.79 1.549,2.743 0.705,4.082 -2.141,-0.067 -3.855,0.582 -5.25,2.023 -2.747,2.882 -3.702,5.661 -2.829,8.269 4.243,6.037 12.705,-5.9 12.295,-13.173 -0.146,-2.608 -1.538,-5.078 -3.613,-6.279 -3.095,-1.852 -7.814,-1.372 -10.869,0.104 -4.09,1.543 -10.563,6.928 -14.342,11.114 -4.758,5.25 -12.916,11.081 -15.467,10.428 0.836,-2.232 7.726,-16.332 0.477,-21.613 z m 57.122,20.857 c 2.305,-3.19 9.014,-11.731 10.647,-13.172 5.5,-4.838 7.699,-2.709 7.89,-1.202 -5.133,9.193 -11.191,19.726 -16.889,29.195 0.013,-0.034 -1.783,2.71 -1.783,2.71 -2.515,3.842 -5.049,7.135 -9.181,9.434 -0.588,0.172 -1.56,0.24 -2.206,-0.24 -0.777,-0.516 -1.085,-1.373 -0.998,-2.266 0.249,-2.95 3.253,-11.971 12.52,-24.459 z m -64.455,5.523 c 0,0 -0.104,0.31 -0.154,0.412 -0.013,0 -5.166,8.405 -5.166,8.405 -3.109,4.149 -6.993,9.365 -11.846,11.869 -1.438,0.479 -3.428,0.789 -4.44,-0.479 -2.147,-2.574 -1.041,-6.143 -0.141,-9.023 l 0.317,-1.029 c 2.58,-6.997 6.672,-13.172 10.654,-18.901 0.051,-0.034 0.161,-0.068 0.202,-0.068 0.009,0.035 0.024,0.035 0.032,0.103 2.5,4.802 7.186,7.031 10.689,8.063 0.021,0 0.045,0.034 0.045,0.104 0.002,0.098 -0.056,0.236 -0.192,0.544 z m 4.881,-9.913 c -0.021,0.068 -2.294,5.282 -2.294,5.282 -0.329,0.274 -0.849,0.138 -1.443,0 l -1.02,-0.172 c -3.204,-0.994 -5.62,-3.121 -6.364,-5.659 -1.027,-4.939 3.193,-8.816 5.052,-10.223 1.784,-1.236 4.559,-1.888 6.168,-0.618 0.993,1.167 1.37,2.676 1.37,4.323 0,2.229 -0.688,4.734 -1.469,7.067 z"
         id="oca"
         inkscape:connector-curvature="0"
         style="fill:#000000;fill-opacity:0.2" />
      <path
         d="m 245.283,150.749 c -1.145,-2.47 -3.854,-4.047 -6.745,-3.876 -9.386,0.857 -18.566,8.576 -23.387,19.656 -2.529,5.693 -3.91,10.395 -4.814,17.873 2.918,-3.36 8.871,-8.885 15.626,-11.904 0,0 0.92,-7.169 5.607,-13.549 1.773,-2.645 5.324,-6.896 9.31,-5.766 3.482,1.168 2.258,10.809 -2.369,20.137 -3.426,6.861 -8.666,13.726 -13.97,18.459 -4.688,3.979 -11.624,8.781 -17.691,5.076 -3.821,-2.264 -5.771,-6.998 -5.359,-13.104 1.827,-17.324 9.711,-32.076 20.997,-48.886 11.637,-15.608 24.464,-31.629 41.743,-40.172 3.523,-1.784 6.789,-2.196 9.609,-1.097 0,0 -16.221,8.919 -23.953,25.42 -1.967,4.187 -4.703,9.845 -1.947,14.854 1.438,2.606 3.996,2.813 6.054,2.675 9.478,-2.196 15.602,-11.046 20.604,-19.142 2.901,-6.141 5.479,-12.247 5.479,-19.039 0,-0.823 -0.042,-1.921 -0.113,-2.744 4.529,-2.401 13.813,1.852 13.813,1.852 7.256,2.402 22.704,14.239 27.917,16.502 2.542,-2.95 6.72,-7.409 9.071,-9.64 l -3.404,-2.093 c -5.451,-3.328 -11.214,-6.484 -16.887,-9.605 -12.88,-7.032 -23.363,-4.563 -28.7,-2.642 -2.099,0.755 -4.015,1.407 -4.015,1.407 -3.961,-4.323 -10.455,-3.912 -15.239,-2.745 -17.211,4.939 -33.188,16.98 -50.318,37.873 -12.594,16.364 -20.407,30.498 -24.57,44.46 -3.21,9.398 -4.186,23.224 3.648,31.423 6.661,6.963 15.492,5.454 21.729,2.952 13.513,-6.657 25.657,-20.996 31.707,-37.498 1.46,-4.903 3.081,-11.833 0.567,-17.117 z m 31.071,-51.697 c -1.789,20.515 -17.734,32.557 -21.681,33.517 -2.391,0.479 -6.471,-0.584 -2.83,-9.193 5.365,-11.596 14.522,-21.44 24.35,-26.484 0.239,0.857 0.232,1.404 0.161,2.16 z"
         id="c"
         inkscape:connector-curvature="0"
         style="fill:#000000;fill-opacity:0.2" />
      <path
         d="m 370.947,101.658 c -8.577,4.873 -17.469,8.028 -28.233,6.93 -2.982,3.363 -5.887,6.827 -8.563,10.395 15.106,3.842 31.123,-4.7 40.055,-12.829 9.449,-8.199 14.295,-18.524 14.295,-18.524 0,0 -7.083,8.094 -17.554,14.028 z"
         id="v"
         inkscape:connector-curvature="0"
         style="fill:#000000;fill-opacity:0.2" />
      <polygon
         points="202.493,129.054 208.842,118.741 197.59,118.741 191.243,129.054 "
         id="square"
         style="fill:#000000;fill-opacity:0.2" />
      <path
         d="m 342.67,195.648 c -1.211,0.824 -2.91,0.19 -2.275,-1.694 1.584,-4.804 7.877,-14.591 7.877,-14.591 l 17.53,-31.09 h -12.008 c -0.571,0.938 -1.792,3.088 -1.792,3.088 -0.555,-0.924 -2.216,-2.981 -2.9,-3.426 -2.933,-1.854 -7.236,-0.978 -10.205,0.703 -12.908,7.547 -22.328,22.461 -29.757,34.092 0,0 -7.818,12.928 -12.159,13.889 -3.389,0.275 -3.038,-4.289 -2.893,-5.354 1.311,-7.685 4.354,-14.99 7.419,-21.613 6.234,-4.32 13.351,-9.981 19.816,-16.19 14.032,-13.415 25.864,-28.612 27.594,-32.008 0,0 -1.872,0.377 -4.083,0.445 -10.795,15.061 -32.889,36.947 -39.586,40.207 2.967,-7.137 22.138,-41.202 38.451,-57.497 l 2.566,-2.471 c 3.971,-3.876 8.082,-7.855 11.287,-8.507 0.339,-0.035 0.775,0 1.151,0.79 0.143,3.019 -0.98,5.249 -2.271,7.787 l -1.807,3.706 c 0,0 2.559,-0.48 4.239,-1.031 1.95,-3.669 4.108,-7.787 3.313,-12.691 -0.267,-1.579 -1.408,-2.779 -2.9,-3.053 -4.866,-0.927 -10.172,2.674 -14.438,5.591 l -0.174,0.102 c -21.938,17.187 -40.463,41.956 -56.658,75.781 -1.174,0.891 -5.709,1.955 -6.479,1.439 1.6,-3.293 3.613,-7.72 4.621,-12.521 0.175,-1.373 0.337,-2.777 0.337,-4.15 0,-2.951 -0.709,-5.73 -3.354,-7.65 -3.102,-1.544 -6.934,-0.823 -9.519,0.343 -11.577,4.804 -20.229,16.674 -26.474,26.448 -3.357,6.213 -6.707,12.863 -7.634,20.48 -0.653,5.969 0.676,9.811 4.069,11.732 3.49,1.783 7.882,-0.07 9.607,-0.961 11.729,-6.176 19.924,-18.56 26.384,-29.881 0.257,-0.033 3.782,-0.137 6.45,-0.822 0.035,0 0.051,0 0.11,0.035 -0.153,0.514 -1.532,4.631 -1.532,4.631 -4.094,12.006 -5.986,20.172 -2.12,25.008 5.526,6.828 14.675,-0.238 22.117,-9.572 -1.599,11.184 4.199,12.936 8.616,12.078 5.075,-1.372 10.73,-6.794 13.355,-9.572 -0.844,3.26 -0.613,9.092 4.002,9.674 3.164,0.586 5.532,-1.135 8.272,-2.611 9.83,-5.352 21.596,-23.188 24.65,-28.344 h -4.005 c -4.334,6.564 -9.86,15.167 -16.81,19.251 z m -88.228,-1.193 c -0.624,-0.928 -0.83,-1.938 -0.852,-3.034 -0.12,-6.728 7.116,-18.772 12.227,-25.335 0.011,0 0.011,0 0.011,0 2.141,4.688 6.988,7.701 9.915,8.969 -3.635,8.097 -16.1,25.437 -21.301,19.4 z m 23.352,-23.017 c -0.347,0.24 -6.459,-1.817 -7.64,-7.479 -1.003,-4.873 2.353,-8.681 5.6,-10.601 1.395,-1.098 3.493,-1.475 5.032,-0.928 1.429,0.963 1.815,2.678 1.815,4.527 0,1.135 -0.148,2.301 -0.282,3.363 0,0 -0.025,0.207 -0.029,0.24 -1.019,3.807 -2.577,7.547 -4.496,10.878 z m 49.029,20.857 c -0.004,0 -1.159,1.027 -1.159,1.027 -1.649,1.477 -3.346,3.053 -5.395,2.265 -0.566,-0.207 -0.965,-0.961 -1.061,-1.546 -0.093,-4.219 1.808,-8.129 3.65,-11.938 l 0.472,-0.994 c 5.301,-8.852 11.462,-19.279 20.511,-26.518 1.524,-1.1 3.18,-2.025 4.926,-1.304 0.402,0.376 0.87,1.028 0.87,1.681 0,0.205 -0.184,0.754 -0.29,0.926 -2.525,4.084 -4.933,8.371 -7.273,12.488 -4.573,8.132 -9.318,16.534 -15.251,23.913 z"
         id="ola"
         inkscape:connector-curvature="0"
         style="fill:#000000;fill-opacity:0.2" />
    </g>
  </g>
  <style
     id="style1600"
     type="text/css">
	.st0{opacity:0.2;}
	.st1{fill:#FFFFFF;}
</style>
  <style
     id="style1743"
     type="text/css">
	.st0{opacity:0.2;}
	.st1{fill:#FFFFFF;}
</style>
</svg>
