<?xml version="1.0" encoding="UTF-8" standalone="no"?>
<!-- Created with Inkscape (http://www.inkscape.org/) -->

<svg
   xmlns:dc="http://purl.org/dc/elements/1.1/"
   xmlns:cc="http://creativecommons.org/ns#"
   xmlns:rdf="http://www.w3.org/1999/02/22-rdf-syntax-ns#"
   xmlns:svg="http://www.w3.org/2000/svg"
   xmlns="http://www.w3.org/2000/svg"
   xmlns:sodipodi="http://sodipodi.sourceforge.net/DTD/sodipodi-0.dtd"
   xmlns:inkscape="http://www.inkscape.org/namespaces/inkscape"
   width="54mm"
   height="63mm"
   viewBox="0 0 54 63"
   version="1.1"
   id="svg8"
   inkscape:version="0.92.4 (f8dce91, 2019-08-02)"
   sodipodi:docname="unilever.svg">
  <defs
     id="defs2">
    <style
       id="style2989"
       type="text/css" />
  </defs>
  <sodipodi:namedview
     id="base"
     pagecolor="#ffffff"
     bordercolor="#666666"
     borderopacity="1.0"
     inkscape:pageopacity="0.0"
     inkscape:pageshadow="2"
     inkscape:zoom="0.7"
     inkscape:cx="207.53453"
     inkscape:cy="179.60833"
     inkscape:document-units="mm"
     inkscape:current-layer="layer1"
     showgrid="false"
     width="15mm"
     height="151mm"
     inkscape:window-width="1920"
     inkscape:window-height="1025"
     inkscape:window-x="0"
     inkscape:window-y="27"
     inkscape:window-maximized="1" />
  <metadata
     id="metadata5">
    <rdf:RDF>
      <cc:Work
         rdf:about="">
        <dc:format>image/svg+xml</dc:format>
        <dc:type
           rdf:resource="http://purl.org/dc/dcmitype/StillImage" />
        <dc:title></dc:title>
      </cc:Work>
    </rdf:RDF>
  </metadata>
  <g
     inkscape:label="Layer 1"
     inkscape:groupmode="layer"
     id="layer1"
     transform="translate(0,-234)">
    <g
       id="g3041"
       transform="translate(-10.054166)">
      <g
         style="fill:#000000;fill-opacity:0.2"
         transform="matrix(0.1351378,0,0,0.1351378,-8.7105261,194.15223)"
         id="layer1-3">
        <g
           transform="matrix(3.543307,0,0,3.543307,-21.702117,58.520246)"
           id="g3048"
           style="fill:#000000;fill-opacity:0.2;fill-rule:evenodd">
          <g
             style="fill:#000000;fill-opacity:0.2"
             id="Camada_x0020_1">
            <metadata
               id="CorelCorpID_0Corel-Layer" />
            <path
               inkscape:connector-curvature="0"
               d="m 62.7431,181.373 c -0.1859,-0.592 -0.7291,-1.9242 -0.8767,-2.9067 -0.3256,-2.1768 0.8114,-3.611 1.8572,-3.94 1.1735,-0.3268 1.6311,0.2619 2.0849,1.6312 0.5866,2.0849 0.6524,4.8184 0.4546,8.7296 -0.2565,5.343 -2.9304,11.7967 -9.576,11.6626 -5.7357,-0.1257 -8.2746,-3.8409 -8.5383,-9.5098 -0.0194,-0.4175 -0.0314,-0.8351 -0.0332,-1.2571 v -0.1266 c 0.0015,-2.2399 0.2894,-4.6088 1.2065,-7.7374 0.5866,-2.0232 1.1103,-2.7427 2.9325,-3.1306 1.4324,-0.2619 1.3031,1.2352 0.9784,3.0005 -0.7133,3.9079 -1.0455,5.7949 -0.7815,10.2275 0.2559,4.6926 2.4108,6.5177 4.7564,6.5177 3.5194,0.068 5.0814,-2.8645 5.736,-7.1043 0.5178,-3.3863 0.1278,-5.0153 -0.2008,-6.0566 z m 75.0334,4.6274 c 1.3702,0 1.7629,1.621 1.436,2.6027 -0.3268,0.9751 -1.4982,2.0879 -3.3222,2.4126 -0.3929,-0.9796 -0.5899,-5.0153 1.8862,-5.0153 z m -25.4745,2.2088 c 0,-1.1035 -0.59,-2.0169 -1.3014,-2.0169 -0.5926,0 -1.9562,0.6495 -1.9562,2.7355 0,1.6342 0.5807,2.4097 0.8467,2.7416 1.8862,-0.5875 2.4106,-2.1558 2.4109,-3.4602 z M 92.0325,174.9181 c -0.0919,-1.0454 -0.9117,-1.7569 -2.02,-1.7569 -1.2361,0 -2.4015,1.2972 -2.2776,2.9284 0.0793,1.0741 0.7123,1.9591 1.958,1.9591 1.4282,0 2.4703,-1.6293 2.3396,-3.1306 z m 10.5977,3.8277 c -0.1134,-1.8221 -0.5549,-2.6449 -1.5333,-2.5778 -1.298,0.0781 -1.8972,4.1614 -1.6323,8.453 0.1691,2.8002 0.5857,3.2315 0.9745,3.2045 0.7177,-0.0425 2.4395,-5.0452 2.1911,-9.0797 z m 43.227,6.8596 c -0.8075,3.3503 -3.2563,8.2791 -6.9096,8.2791 -0.8455,-3e-4 -2.3449,-0.3281 -2.3449,-1.1757 0,-0.9137 5.7381,-1.0394 5.7381,-5.4082 0,-1.627 -1.498,-3.9109 -3.7149,-3.9109 -2.9325,0 -5.7929,3.1965 -5.7929,7.626 3e-4,3.9717 2.4674,5.2763 4.9432,5.2763 4.3027,0 6.9095,-3.5212 8.2767,-6.4516 0.6549,1.9547 1.0392,6.4516 2.6745,6.4516 0.6498,0 1.1086,-0.3259 1.8913,-2.0828 1.9496,-4.3688 3.8417,-9.3862 6.4504,-9.3862 0.9745,0 0.3909,1.7632 2.7356,1.7632 1.1056,0 1.8849,-0.9126 1.8849,-1.9601 0,-1.5004 -1.3663,-2.6695 -3.4491,-2.6695 -6.1268,-3e-4 -7.4261,9.189 -8.4045,9.189 -1.6302,0 -1.1086,-7.3641 -2.2839,-7.3641 -1.0433,0 -1.556,1.2426 -1.6949,1.8239 z m -52.1295,7.8191 c 0.9766,0 2.6559,-0.3167 3.9776,-2.4336 -0.7554,-1.6785 -1.2948,-5.0707 -1.3702,-6.3062 -0.3885,-6.3175 2.0448,-12.2597 4.7091,-12.4234 1.9532,-0.1189 3.5162,1.7299 3.6954,4.7252 0.4807,7.8715 -2.1414,11.1575 -3.4541,13.9921 0.2218,1.099 2.0861,2.9696 3.845,2.9696 0.6495,0 1.4352,-0.3259 1.6321,-0.5899 -0.1308,-0.4525 -0.2637,-1.0391 -0.2637,-1.8888 0,-4.5616 2.9334,-8.4076 5.475,-8.4076 2.02,0 3.1932,2.6716 3.1932,4.4347 0,2.0816 -1.761,3.7801 -4.3655,5.4092 0.4579,0.4525 1.3013,0.7826 2.0208,0.7826 3.7173,0 5.663,-4.4978 7.1023,-8.6056 0.2598,-0.7836 0.7186,-1.8889 1.6291,-1.8889 1.5644,0 2.2181,10.2964 4.8174,10.2964 1.1116,0 2.0221,-2.2827 2.0221,-4.0378 0,-1.3052 -0.4558,-1.4363 -0.4558,-3.3261 0,-2.0831 1.1082,-3.8408 2.6107,-3.8408 0.9117,0 1.2403,0.9083 1.2403,2.0136 3e-4,4.1716 -3.0013,11.9279 -7.427,11.9279 -3.3294,-3e-4 -3.0696,-5.7351 -4.241,-5.7351 -1.3095,0 -3.1334,5.8 -9.5787,5.8 -1.0475,0 -2.1531,-0.5208 -3.0636,-1.5662 -1.5617,1.0454 -2.8684,1.5013 -4.3676,1.5013 -2.4085,-3e-4 -3.4533,-2.4767 -4.4287,-2.4767 -1.1753,-3e-4 -2.4746,2.5416 -6.3885,2.5416 -3.1273,0 -3.6493,-4.1668 -4.7546,-4.1668 -0.9793,0 -2.4775,4.1668 -4.1057,4.1668 -2.7407,0 -3.3222,-7.2313 -5.7372,-7.2313 -1.8889,0 -7.8601,7.3447 -9.4808,7.1765 -0.6516,-0.0682 -0.926,-0.5546 -0.8569,-1.2064 0.0919,-0.9009 0.868,-3.3147 1.1825,-4.4562 0.5271,-1.982 1.0105,-4.1534 1.2807,-4.8462 0.2682,-0.6992 0.9919,-1.1972 1.5725,-1.1436 0.2927,0.0278 0.3804,0.5734 0.4711,1.0239 0.3292,1.6114 0.789,3.2542 1.3076,3.2542 0.9156,0 3.9388,-5.801 5.6968,-5.801 2.1541,0 2.4118,9.1253 5.3422,9.1253 0.9796,0 1.6991,-1.1715 2.3476,-2.6087 0.0671,-2.415 0.7177,-5.8608 2.6727,-5.8608 1.3696,0 2.0221,3.0603 1.0416,5.7348 0,3.1893 2.0825,3.972 3.4542,3.972 z"
               id="path2993"
               style="fill:#000000;fill-opacity:0.2" />
            <path
               inkscape:connector-curvature="0"
               d="m 139.117,91.235 c -0.4836,0 -1.1765,0 -1.5572,-0.759 -0.3125,-0.6228 -0.2071,-1.6269 -0.7949,-2.0756 0.5881,0.1718 1.2094,0.1718 1.6943,0.1718 1.5581,0 3.0468,-1.0718 4.1892,-1.0718 0.7531,-3e-4 0.9961,0.4852 0.9961,0.9671 0,1.5237 -3.0726,2.7675 -4.5275,2.7675 z m 0.76,3.9079 c 3.5933,0 6.8823,-2.8696 6.8823,-5.3933 3e-4,-1.1774 -0.5555,-2.1447 -1.9733,-2.3174 0.2424,0.3113 0.3454,0.5534 0.3454,1.1065 0,1.902 -2.8984,4.012 -6.0485,4.012 -1.1424,-3e-4 -1.489,0.7941 -1.489,1.2089 0,0.9691 0.9362,1.3833 2.2831,1.3833 z m -0.2751,1.4525 c 0.4504,3.2836 5.4262,7.7108 6.7749,7.6066 0.9026,-0.0763 1.2468,-4.2877 1.2468,-7.6063 0,-1.9014 0.1039,-3.3892 -0.8994,-3.7358 -1.5928,3.2171 -5.7719,3.8738 -7.1223,3.7355 z"
               id="path2995"
               style="fill:#000000;fill-opacity:0.2" />
            <path
               inkscape:connector-curvature="0"
               d="m 61.7707,118.345 c 1.1744,0 0.932,-7.1932 2.8334,-7.1932 0.4507,0 0.5887,0.4495 0.5887,1.0029 0,1.6246 -0.7961,4.0124 -0.7961,5.3251 3e-4,0.6572 0.1733,0.8655 0.4848,0.8655 0.8309,-3e-4 2.2828,-7.9199 3.6996,-7.9199 0.4496,0 0.6567,0.4495 0.6567,0.8997 3e-4,1.6593 -2.1076,6.4309 -2.1076,7.7793 0,0.208 0.0682,0.3798 0.2415,0.3798 0.8649,-3e-4 2.5931,-3.7332 3.1456,-5.5999 0.3118,-0.9694 0.7261,-1.489 1.1077,-1.489 0.3454,0 0.6575,0.3816 0.6575,1.1775 3e-4,1.867 -1.7302,6.2579 -3.2521,9.1985 -1.1742,2.2819 -3.0064,5.5642 -3.0064,7.3971 0,0.9347 0.17,1.902 1.5198,3.078 -2.213,-0.1383 -3.1121,-0.3454 -3.9408,-2.0735 -3.7008,7.3638 6.8113,6.6392 3.2147,13.1711 -0.6576,-1.1736 -5.8432,-2.3839 -5.8432,-9.2303 0,-5.9123 5.1853,-9.3701 5.1853,-11.8249 3e-4,-0.4837 -0.1709,-0.8985 -0.6207,-1.2789 -1.1421,-0.9706 -1.1774,-1.7631 -2.0753,-1.7631 -0.6558,-3e-4 -1.454,1.5204 -0.6232,2.869 0.2778,0.4496 0.5199,0.7264 0.5199,1.1412 0,0.9671 -1.5231,3.559 -2.5931,3.559 -1.0723,0 -1.9005,-2.6587 -1.9005,-6.9479 3e-4,-3.8052 0.8632,-7.6416 1.9355,-7.6416 0.3104,0 0.4134,0.2071 0.4134,0.4845 3e-4,0.4493 -0.1371,1.3472 -0.1371,2.8685 0,1.6261 0.3804,1.7658 0.692,1.7655 z"
               id="path2997"
               style="fill:#000000;fill-opacity:0.2" />
            <path
               inkscape:connector-curvature="0"
               d="m 70.5855,128.475 c 1.454,0 2.6635,-1.0739 2.6635,-3.456 v -3.5284 c 0,-1.3486 0.1038,-2.869 1.0041,-3.9429 -0.1042,0.4511 -0.1042,0.9347 -0.1042,1.384 0,2.9741 1.659,5.0153 1.659,7.8837 3e-4,1.07 -0.3112,1.6596 -1.1394,1.6596 -0.7955,0 -0.7267,-0.7264 -0.9,-0.7264 -0.137,-3e-4 -0.3454,0.449 -0.3454,0.9335 3e-4,0.7261 0.5187,1.8667 1.9703,1.8667 1.2457,0 2.2468,-1.1403 2.2468,-2.4198 3e-4,-3.11 -2.4201,-6.5695 -2.4201,-9.8881 0,-1.4531 0.3807,-2.4201 0.692,-3.1827 0,6.882 5.8431,11.8952 5.8431,14.7639 3e-4,0.6576 -0.4833,1.1775 -1.2094,1.1775 -0.7946,-3e-4 -1.1765,-0.6238 -1.1765,-1.1083 3e-4,-0.2422 -0.0351,-0.3107 -0.138,-0.3107 -0.2062,0 -0.8291,0.6917 -0.8291,1.5923 3e-4,1.1391 0.932,2.5245 2.6623,2.5245 1.9696,-3e-4 3.0417,-1.6623 3.0417,-3.1486 3e-4,-3.6289 -7.0876,-9.1276 -7.0876,-15.0043 0,-1.0047 0.1712,-2.6296 0.8991,-3.8735 -4.5649,2.9376 -5.9815,6.8464 -5.9815,10.2692 3e-4,2.9747 -0.1032,4.4592 -1.6251,4.4592 -0.7959,-3e-4 -1.0033,-0.7243 -1.2807,-0.7243 -0.2068,-3e-4 -0.3113,0.6216 -0.3113,0.7937 0,1.2795 0.9344,2.0062 1.8664,2.0062 z"
               id="path2999"
               style="fill:#000000;fill-opacity:0.2" />
            <path
               inkscape:connector-curvature="0"
               d="m 122.972,89.5413 c 0.4391,-0.2945 2.3878,0.1724 4.9088,-1.0738 0.3107,-0.1697 0.6219,-0.2392 0.8982,-0.2392 1.2127,0 0.9003,1.3819 2.0086,1.3819 0.8631,-3e-4 1.9723,-0.7261 2.6305,-0.7261 1.0301,-3e-4 2.5179,3.2506 2.5179,4.7719 0,1.7629 -2.6574,2.8362 -5.8063,2.8362 -4.5954,-3e-4 -7.3651,-4.0112 -7.3651,-6.6055 0,-0.2068 0.1051,-0.2765 0.2074,-0.3454 z m 7.5384,4.3916 c 1.5231,0 2.664,-0.6914 2.664,-1.1074 3e-4,-0.1368 -0.2071,-0.2406 -0.6575,-0.2406 -0.4496,-3e-4 -1.3498,-0.0342 -3.0451,-0.3116 -1.4548,-0.2424 -2.561,-0.7955 -2.9767,-0.7955 -0.138,0 -0.2084,0.0685 -0.2084,0.1724 3e-4,0.9002 1.6623,2.2827 4.2237,2.2827 z"
               id="path3001"
               style="fill:#000000;fill-opacity:0.2" />
            <path
               inkscape:connector-curvature="0"
               d="m 71.3134,141.51 c -1.1403,0.2775 -2.9747,2.0726 -2.9747,4.9124 0,3.3859 3.6314,8.6095 9.6131,8.6095 5.0473,0 6.2927,-3.4922 6.2927,-5.8461 0,-5.2209 -3.2139,-8.8861 -7.3971,-8.8861 -2.2827,0 -4.3236,1.6599 -4.3236,4.1129 3e-4,2.2848 1.7293,5.7073 5.8434,5.7073 1.9368,-3e-4 3.0768,-1.3849 3.0768,-2.9717 3e-4,-1.557 -1.4166,-3.6996 -3.4922,-3.6996 -0.6216,0 -1.0706,0.4103 -1.0706,1.0702 3e-4,0.8279 1.1394,1.6602 2.5584,1.6602 0.3445,0 0.6216,-0.0703 0.7608,-0.1391 0.0682,0.1059 0.1033,0.2771 0.1033,0.4154 3e-4,0.7958 -0.7612,1.2807 -1.9365,1.2807 -1.7631,0 -3.4584,-1.3136 -3.4584,-3.3925 0,-1.2415 1.0724,-2.1406 2.6285,-2.1406 3.0767,0 4.909,2.7305 4.909,5.4639 0,2.4528 -1.3468,3.8729 -4.1132,3.8729 -5.5337,-3e-4 -8.2291,-4.9803 -7.0197,-10.0297 z"
               id="path3003"
               style="fill:#000000;fill-opacity:0.2" />
            <path
               inkscape:connector-curvature="0"
               d="m 110.783,161.769 c 1.6587,0 1.5719,-0.138 2.0918,-0.138 0.5178,-3e-4 0.5537,0.3112 0.5537,0.5196 0,0.7611 -1.6961,1.6952 -4.704,1.6952 -1.7632,0 -2.8356,-0.9341 -3.1468,-1.9715 -1.7282,1.1062 -4.3554,2.1097 -6.9497,2.1097 -7.0864,0 -8.8852,-3.08 -11.0988,-4.0803 -1.6949,-0.7611 -4.2874,0.727 -7.919,-3.3188 0.4848,0.1038 1.1427,0.1379 1.6614,0.1379 3.1788,0 4.874,-1.5527 4.874,-4.045 0,-0.3124 -0.035,-0.6545 -0.0703,-0.9652 0.9694,0.3804 3.183,2.0376 3.7029,4.9761 0.0682,0.3466 1.4848,0.657 2.3838,0.657 1.2457,0 2.8356,-0.5196 3.0777,-2.5572 4.1494,-0.3454 6.9517,-2.7993 7.5396,-5.9144 1.4848,0.4846 3.1788,1.8335 3.5945,2.5264 0.5875,-0.2075 1.2783,-0.3116 2.0735,-0.3116 1.1065,0 2.3519,0.2083 3.8376,0.6578 0.0703,-0.4495 0.1383,-1.0032 0.8311,-1.0032 1.0374,0 0.7599,1.1415 1.1065,1.7952 0.1733,0.3466 1.0392,0.5537 1.0392,1.2453 3e-4,0.6591 -0.5567,0.9015 -0.9012,0.9015 -0.138,0 -0.3113,-0.035 -0.4154,-0.0691 -0.6908,0.2421 -0.7258,5.2182 -3.6305,5.2182 -2.1426,0 -4.1141,-1.7631 -4.9794,-3.9737 -0.2421,-0.6567 -0.7599,-1.0724 -1.2444,-1.0724 -0.5525,0 -0.8641,0.1041 -1.5198,0.8311 -1.8662,2.0373 -4.9791,3.8008 -8.817,3.8008 -1.1762,-3e-4 -2.1097,-0.1054 -2.3519,-0.1054 -0.1391,0 -0.1391,0.035 -0.1391,0.0692 0,0.2433 1.1753,1.1774 3.7346,1.1774 6.0856,0 7.5734,-3.4242 8.5407,-3.4242 0.1403,0 0.5525,0 0.7937,0.5548 1.419,3.3159 4.5143,4.0768 6.451,4.0768 z m -2.6811,-6.9105 c 0,0.7611 0.6226,1.384 1.3837,1.384 0.7611,0 1.3827,-0.6229 1.3827,-1.384 0,-0.762 -0.6219,-1.3845 -1.3827,-1.3845 -0.7608,0 -1.384,0.6225 -1.3837,1.3845 z"
               id="path3005"
               style="fill:#000000;fill-opacity:0.2" />
            <path
               inkscape:connector-curvature="0"
               d="m 135.486,137.602 c -0.4846,0 -1.0035,0.3816 -1.0035,1.3169 3e-4,1.0341 0.7961,1.6919 1.2447,1.8982 0.2434,0.14 0.6238,0.2783 1.0012,0.2783 1.0044,0 1.8011,-0.2783 1.8011,-1.1095 3e-4,-1.0673 -1.559,-2.3836 -3.0435,-2.3839 z m -3.7295,2.1427 c -0.727,0 -4.7433,5.3598 -7.3313,5.3598 -0.6216,0 -1.1415,-1.1754 -1.1415,-2.0706 3e-4,-0.4848 0.3104,-0.8311 1.4199,-1.0744 5.9455,-1.349 4.6295,-5.8103 9.7088,-5.8103 2.8005,0 5.9165,1.9045 5.9165,6.191 0,4.5645 -6.4968,10.2335 -7.4662,10.2335 -0.7959,0 -1.6611,-1.1403 -1.6611,-1.9002 3e-4,-0.2413 0.1041,-0.5537 0.7961,-0.8303 3.315,-1.3157 5.2152,-4.3571 5.2152,-5.9141 0,-0.3468 -0.1721,-0.6889 -0.6219,-0.6889 -0.5863,-3e-4 -3.1046,5.7372 -5.9081,5.7372 -1.9394,-3e-4 -3.9118,-1.7593 -3.9118,-2.5913 0,-1.3849 5.607,-3.9418 5.607,-5.8803 3e-4,-0.7282 -0.3454,-0.7611 -0.6216,-0.7611 z"
               id="path3007"
               style="fill:#000000;fill-opacity:0.2" />
            <path
               inkscape:connector-curvature="0"
               d="m 63.3255,94.4174 c 0,0 -1.0023,0.7594 -2.2468,0.7594 -1.4857,0 -2.6622,-1.1056 -2.6622,-2.6611 0,-1.0727 0.5537,-2.1779 1.8322,-2.7325 -0.0341,0.208 -0.0341,0.3804 -0.0341,0.5884 0,1.9711 1.1065,3.4565 3.1109,4.0458 z m 7.3995,6.6393 c -0.7599,0.8976 -1.5563,2.4201 -1.5563,3.9756 3e-4,1.8658 1.1424,3.4215 2.9058,3.4215 1.694,0 2.4902,-1.4519 2.4902,-2.937 0,-2.3168 -2.1098,-3.9438 -3.8397,-4.4601 z m -11.4774,1.3822 c -0.0649,0.1062 -0.1042,0.2427 -0.1042,0.381 0,0.3115 0.3463,0.6569 0.6558,0.6569 0.2766,-3e-4 0.4495,-0.0685 0.5875,-0.0685 0.8294,-3e-4 1.7632,0.5866 3.1121,0.5866 0.794,0 1.7281,-0.2427 2.9035,-0.8284 2.4904,-1.2463 3.4592,-4.3231 3.4592,-4.842 0,-0.6582 -0.5279,-0.5714 -0.9691,-1.1766 -0.4415,-0.6028 -0.2721,-1.1358 -0.5537,-1.4177 -0.1595,-0.162 -0.6557,-0.1721 -1.2795,-0.2419 -0.2083,-0.0224 -0.4848,-0.035 -0.7611,-0.035 -1.1394,0 -2.4922,0.1401 -4.01,1.1074 -3.0004,1.9146 -2.558,5.0832 -3.0405,5.8782 z m 8.1241,-4.2877 c 0.2391,0.3262 0.9,0.7273 0.9,0.9691 0,0.4824 -0.2784,1.1065 -0.8312,1.1065 -1.2112,-3e-4 -2.1786,-1.8329 -2.1786,-2.8724 0,-0.6551 0.3814,-0.7237 0.8979,-0.7237 0.2425,0 0.3466,0.0348 0.5187,0.1383 0.3128,0.173 0.3125,0.8635 0.6932,1.3822 z m -3.1821,4.2185 c -1.1403,0 -2.3851,-1.4165 -2.3851,-2.6972 3e-4,-0.6908 0.5187,-1.5564 0.8982,-1.5564 0.1382,-3e-4 0.2083,0.1045 0.2424,0.3475 0.2074,1.6934 1.3145,2.6629 2.3519,3.1453 0.1032,0.0686 0.1733,0.1036 0.1733,0.1721 0,0.243 -0.6582,0.5887 -1.2807,0.5887 z m 2.9406,-8.7137 c 0.1723,-0.5546 0.3103,-1.2435 0.3103,-2.0058 3e-4,-1.659 -0.762,-4.1833 -3.113,-4.1833 -1.3474,0 -2.3177,1.0718 -2.3177,2.3513 0,2.7322 2.7323,3.8378 5.1204,3.8378 z m -8.9559,13.8305 c 0,2.6269 0.7959,3.8732 2.2124,3.8732 1.1065,-3e-4 2.5934,-0.7961 4.3554,-2.3175 -1.3478,0.3113 -2.3857,0.5196 -3.318,0.5196 -1.2445,-3e-4 -2.2118,-0.4845 -3.2498,-2.0753 z m 1.2116,-3.0777 c -0.0341,0.1739 -0.0344,0.3466 -0.0344,0.5187 3e-4,1.6252 0.8631,2.5246 2.0046,2.5246 0.862,0 1.8661,-0.5184 2.7634,-1.6611 -0.3786,0.0685 -0.829,0.1038 -1.2435,0.1038 -1.2783,-3e-4 -2.6614,-0.3444 -3.4901,-1.486 z m 8.4703,-0.4836 c -0.797,0.2071 -2.456,1.1756 -2.456,2.9037 0,1.2439 0.967,2.0409 2.1786,2.0409 0.6228,0 1.0712,-0.1391 1.3486,-0.3462 -0.967,-0.9335 -1.3136,-1.9709 -1.3136,-3.0068 0,-0.7282 0.103,-1.1765 0.2424,-1.5916 z m 1.2445,-9.4742 c 0,0.7602 0.6217,1.3839 1.3816,1.3839 0.7611,-3e-4 1.3839,-0.6234 1.3839,-1.3839 0,-0.7599 -0.6228,-1.3837 -1.3839,-1.3837 -0.7596,-3e-4 -1.3816,0.6238 -1.3816,1.3837 z m 1.7961,3.1117 c 0,0.7615 0.6237,1.3843 1.3857,1.3843 0.7593,0 1.3819,-0.6225 1.3819,-1.3843 0,-0.759 -0.6229,-1.3821 -1.3819,-1.3821 -0.7617,-3e-4 -1.3857,0.6234 -1.3857,1.3821 z"
               id="path3009"
               style="fill:#000000;fill-opacity:0.2" />
            <path
               inkscape:connector-curvature="0"
               d="m 124.842,114.54 c 0,-0.6905 0.6229,-1.2783 1.3062,-1.2783 0.7623,0 1.351,0.5878 1.351,1.2786 0,0.7946 -0.5887,1.3492 -1.351,1.3492 -0.6833,-3e-4 -1.3062,-0.5543 -1.3062,-1.3495 z m -12.1403,-10.6489 c 0,0.7599 0.6237,1.3827 1.3819,1.3827 0.7629,-3e-4 1.3866,-0.6228 1.3866,-1.3827 0,-0.7594 -0.6237,-1.3822 -1.3866,-1.3822 -0.7579,0 -1.3819,0.6228 -1.3819,1.3822 z m -1.1741,4.8743 c 0,1.073 0.8958,1.9705 1.9702,1.9705 1.0703,-3e-4 1.9724,-0.8975 1.9724,-1.9702 0,-1.0706 -0.9021,-1.9709 -1.9724,-1.9709 -1.0741,-3e-4 -1.9705,0.9006 -1.9702,1.9706 z m 4.3571,-2.2124 c 0,1.1768 0.9344,2.1088 2.1035,2.1088 1.1756,0 2.1127,-0.932 2.1127,-2.1088 3e-4,-1.1759 -0.9371,-2.1088 -2.1127,-2.1088 -1.1691,0 -2.1035,0.9332 -2.1035,2.1088 z m 0.1745,-4.4954 c 0,0.7276 0.5875,1.3169 1.3073,1.3169 0.7258,-3e-4 1.3145,-0.5893 1.3145,-1.3166 3e-4,-0.7246 -0.5887,-1.3121 -1.3145,-1.3121 -0.7198,-3e-4 -1.3073,0.5875 -1.3073,1.3118 z m 6.2556,-3.3171 c 0,0.724 0.5875,1.3124 1.3157,1.3124 0.727,0 1.3154,-0.5884 1.3154,-1.3121 3e-4,-0.7282 -0.5887,-1.3157 -1.3154,-1.3157 -0.7279,0 -1.3157,0.5878 -1.3157,1.3154 z m -2.5949,4.253 c 0,1.2088 1.0026,2.2106 2.2133,2.2106 1.2127,0 2.216,-1.0018 2.216,-2.2106 0,-1.2122 -1.0033,-2.2133 -2.216,-2.2133 -1.2104,-3e-4 -2.2136,1.0011 -2.2133,2.2133 z m -3.5586,8.0899 c 0,0.7608 0.6225,1.3822 1.3773,1.3822 0.7611,0 1.3849,-0.6211 1.3849,-1.3822 3e-4,-0.7617 -0.6241,-1.383 -1.3849,-1.383 -0.7545,-3e-4 -1.3776,0.6216 -1.3773,1.383 z m 4.5274,-2.7676 c 0,0.7615 0.6217,1.3846 1.3849,1.3846 0.7602,-3e-4 1.3824,-0.6228 1.3824,-1.3843 3e-4,-0.7596 -0.6225,-1.3821 -1.3824,-1.3821 -0.7629,0 -1.3849,0.6225 -1.3849,1.3818 z m -1.2795,4.8759 c 0,1.3133 1.0712,2.3863 2.3869,2.3863 1.3148,0 2.389,-1.0727 2.389,-2.3863 0,-1.3133 -1.0745,-2.386 -2.389,-2.386 -1.3154,0 -2.3869,1.0727 -2.3869,2.386 z m 4.9815,-2.9406 c 0,0.9009 0.7276,1.6273 1.6204,1.6273 0.8994,0 1.6261,-0.7264 1.6261,-1.627 3e-4,-0.8976 -0.7267,-1.624 -1.6261,-1.624 -0.8925,0 -1.6207,0.7264 -1.6204,1.6237 z m -0.1036,-4.3563 c 0,0.7971 0.6588,1.454 1.4456,1.454 0.7971,0 1.4549,-0.6566 1.4549,-1.4537 3e-4,-0.794 -0.6578,-1.4509 -1.4549,-1.4509 -0.7865,0 -1.4456,0.6569 -1.4456,1.4506 z"
               id="path3011"
               style="fill:#000000;fill-opacity:0.2" />
            <path
               inkscape:connector-curvature="0"
               d="m 127.81,151.263 c -0.8991,0.6928 -3.0029,2.2456 -6.4992,2.2456 -1.8671,0 -2.6985,-0.5875 -2.9756,-0.5875 -0.3466,0 -0.727,0.3454 -1.1074,0.7958 -0.8216,0.9694 -1.8952,2.7676 -1.8952,4.737 0,1.3815 1.0733,2.7634 3.0717,2.7634 6.4723,0 11.3089,-4.0441 11.3089,-7.3271 3e-4,-1.8664 -1.1062,-2.6272 -1.9032,-2.6272 z m -1.7982,-0.3807 c 0.2795,-0.238 0.3454,-0.6214 0.3454,-1.0042 v -0.7949 c 0,-1.0044 -1.5148,-1.589 -3.5925,-1.589 -2.526,0 -3.8758,1.1386 -3.8758,1.624 v 1.5899 c 0,0.659 1.5237,1.316 3.3922,1.316 1.4881,-3e-4 2.8376,-0.3807 3.7307,-1.1418 z m -0.2787,3.4233 c 0.1745,0 0.3805,0.1024 0.3805,0.727 0,0.759 -0.3442,1.7614 -1.5836,2.5551 -0.865,0.5899 -2.0418,1.0745 -3.7717,1.1053 0.2762,-0.827 0.4845,-1.6928 0.4845,-2.5189 3e-4,-0.2774 -0.0341,-0.4857 -0.0691,-0.7961 h 0.4498 c 2.7344,0 3.9106,-1.0724 4.1096,-1.0724 z"
               id="path3013"
               style="fill:#000000;fill-opacity:0.2" />
            <path
               inkscape:connector-curvature="0"
               d="m 112.529,112.052 c 0.3804,2.9372 4.3254,1.4509 4.3254,5.0108 0,0.5195 -0.1382,1.2821 -0.1382,1.9379 3e-4,0.7608 0.0679,1.4178 0.6506,1.4178 0.5867,0 0.7258,-0.414 0.7258,-0.9683 0,-0.5543 -0.1391,-1.245 -0.1391,-1.6248 0,-1.2113 0.8661,-1.4863 1.3857,-1.4863 1.3148,-3e-4 2.318,1.348 4.2916,1.348 -0.4504,2.213 -5.0186,1.6249 -5.0186,4.0462 3e-4,1.2106 1.2116,1.4851 2.0077,1.4851 0.7273,0 0.9694,-0.103 0.9694,-0.7237 0,-0.3478 -0.0703,-0.7279 -0.0703,-0.9697 3e-4,-0.1395 0.1041,-0.2775 0.2774,-0.2775 0.7632,0 4.4903,2.8361 4.4903,3.7017 3e-4,0.7937 -3.9366,1.589 -5.0781,1.589 -0.346,0 -0.4154,-0.2419 -0.4154,-0.3801 0,-0.2419 0.5878,-0.9683 0.5878,-1.3822 0,-0.3116 -0.5187,-0.5193 -1.9035,-0.5193 -0.6579,0 -1.1424,0.0698 -1.1424,0.589 0,0.9315 1.5228,2.0739 1.5228,2.9364 3e-4,0.6926 -0.4146,1.1074 -1.5228,1.1074 -0.9341,0 -2.3468,-0.7273 -2.3468,-1.9364 0,-0.9682 0.9981,-1.9344 0.9981,-2.5234 0,-0.173 -0.132,-0.4498 -0.5465,-0.4498 -1.2816,0 -1.6273,3.3874 -6.1589,3.7684 0.7261,-0.6572 1.3477,-1.3833 1.3477,-2.8675 0,-0.7267 -0.1712,-1.3157 -0.1712,-2.1098 0,-1.0379 0.4825,-1.5575 1.1745,-1.5575 1.2786,0 1.9014,1.7973 2.7343,1.7973 0.4508,0 0.9344,-0.4131 0.9344,-1.0356 3e-4,-2.6284 -5.0503,-2.248 -5.0503,-5.9476 0,-1.0032 0.3433,-2.2483 1.2786,-3.9755 z m 16.4924,10.1305 c 0,0.8629 0.2784,1.8661 1.1433,1.8661 0.7261,-3e-4 1.3489,-1.1044 1.3489,-2.3153 0,-1.3834 -0.2424,-2.4564 -0.2424,-3.0103 3e-4,-0.241 0.1042,-0.3445 0.2424,-0.3445 0.5199,0.0347 1.0033,1.4518 1.5579,1.4518 0.6228,-3e-4 1.5506,-1.1424 1.9301,-1.1424 0.1045,-3e-4 0.1383,0.1395 0.1383,0.173 0,0.5196 -0.7961,1.6623 -0.7961,2.1107 3e-4,0.3804 2.0077,0.4492 2.0077,0.7952 0,0.5196 -2.1047,0.5196 -3.1067,0.9691 -0.9683,0.4139 -1.5591,0.9326 -1.5591,1.6252 3e-4,0.6917 0.6929,0.8287 1.662,0.8287 2.3109,0 3.9358,-1.2432 4.4544,-1.2432 0.1033,-3e-4 0.1721,0.0679 0.1721,0.1715 3e-4,0.3462 -1.1753,1.4869 -1.1753,2.0061 0,0.587 2.1457,1.2765 2.1106,1.624 -0.0338,0.1033 -0.1733,0.1371 -0.4145,0.1371 -0.3822,-3e-4 -0.9691,-0.1033 -1.4198,-0.1033 -0.2763,0 -0.5187,0.0336 -0.6238,0.1724 -0.2388,0.2772 0.0701,2.1107 -0.4115,2.1107 -0.4504,-3e-4 -1.627,-4.0803 -4.2832,-4.0803 -0.3813,0 -0.6579,0.3115 -0.6579,0.8302 3e-4,1.3822 1.3498,2.972 2.6305,3.7334 0.5798,0.381 1.5498,0.7611 1.5498,0.9703 0,0.4125 -2.2076,0.0336 -2.2076,0.7246 0,0.6226 0.2762,1.5585 0.2762,2.1089 3e-4,0.1733 -0.035,0.3795 -0.2421,0.3795 -0.4145,0 -1.4199,-1.9008 -1.9035,-1.9008 -0.4145,-3e-4 -1.3148,1.1406 -1.6961,1.1406 -0.103,-3e-4 -0.1724,-0.1039 -0.1724,-0.2059 3e-4,-0.7959 1.2807,-2.5931 1.2807,-4.3575 3e-4,-0.8302 -0.1042,-2.6281 -1.1083,-2.6281 -0.83,-3e-4 -1.7653,1.3136 -2.1807,2.6281 -0.2403,0.7599 -0.0694,3.6996 -0.6228,3.6996 -0.5184,0 -0.3804,-1.9706 -1.0736,-1.9706 -0.51,0 -1.6177,0.9329 -1.9981,0.9329 -0.07,-3e-4 -0.1395,-0.0353 -0.1395,-0.1035 3e-4,-0.4142 1.0045,-1.7635 1.0045,-2.0403 3e-4,-0.5184 -2.284,-0.5866 -2.284,-1.0018 3e-4,-0.243 0.8991,-0.4148 1.7294,-0.5546 1.7589,-0.3115 4.3532,-1.5898 4.3532,-3.3871 0,-2.0053 -1.9373,-2.8705 -3.2108,-3.7008 -0.6576,-0.4145 -1.3837,-0.7587 -1.3837,-1.0355 0,-0.2775 0.83,-0.2775 1.1763,-0.2775 0.5189,0 1.031,-0.035 1.031,-0.4489 3e-4,-0.3125 -0.07,-0.9332 -0.07,-1.4178 3e-4,-0.3466 0.0341,-0.6228 0.1742,-0.6228 0.5187,0 1.2445,1.694 1.5919,1.694 0.5531,-3e-4 1.314,-1.3828 1.8347,-1.3828 0.1709,0 0.2413,0.1042 0.2413,0.4146 3e-4,1.2783 -0.6579,2.7304 -0.6579,3.9773 z"
               id="path3015"
               style="fill:#000000;fill-opacity:0.2" />
            <path
               inkscape:connector-curvature="0"
               d="m 113.532,131.758 c 1.5922,0.2083 1.9735,0.7605 1.9735,1.2118 0,0.7608 -0.6929,1.0018 -1.3516,1.0018 -0.4825,-3e-4 -1.0374,-0.1039 -1.6252,-0.1039 -0.7617,0 -1.5219,0.1733 -2.1435,0.8991 0.4486,0.0688 1.1065,0.3816 1.1065,1.0736 0,2.0053 -5.5672,0.3433 -5.5672,5.4977 3e-4,2.7305 2.8358,5.7061 7.122,5.7061 2.216,0 3.6346,-0.727 3.6346,-1.5578 3e-4,-0.6561 -1.1756,-0.2083 -1.1756,-0.7611 0,-0.2413 0.4145,-0.6929 0.4145,-1.0745 3e-4,-0.167 -0.1379,-0.4804 -0.4145,-0.4804 -0.6246,-3e-4 -1.8011,1.0003 -4.1871,1.0003 -1.867,-3e-4 -3.7008,-1.0682 -3.7008,-2.5222 3e-4,-0.3107 0.1394,-0.4846 0.3466,-0.4846 0.2083,-3e-4 0.4836,0.1392 0.7258,0.1392 0.2083,-3e-4 0.2424,-0.1392 0.2424,-0.5187 0,-0.3816 0,-1.4539 0.6557,-1.4539 0.6591,0 1.9036,2.4213 6.6785,2.4213 1.5851,-3e-4 4.6645,-0.3095 5.8073,-1.349 -0.0351,3.8038 -3.0119,8.817 -9.2336,8.817 -6.466,0 -9.9244,-5.1874 -9.9244,-9.9594 0,-5.2891 4.3204,-10.094 10.2357,-10.094 1.5198,0 2.8026,0.5172 2.8026,1.175 3e-4,0.9006 -2.2498,0.3463 -2.4222,1.4166 z m 10.6175,1.8353 c 0.2415,0.378 0.3463,0.759 0.3463,1.1047 3e-4,0.9691 -0.6579,1.8673 -0.6579,2.8714 0,1.1403 0.8662,2.0726 2.1735,2.0726 1.4181,-3e-4 2.3872,-1.1385 2.3872,-2.4892 0,-1.8323 -1.6602,-3.3871 -4.2491,-3.5595 z m -11.4475,2.2118 c 0.3445,0.3444 0.4496,0.691 0.4496,1.0373 0,0.5187 -0.2422,1.0724 -0.2422,1.6611 0,0.827 0.6226,1.5539 1.5207,1.5539 0.9704,0 1.6294,-0.762 1.6294,-1.6578 0,-1.3151 -1.354,-2.5945 -3.3575,-2.5945 z m 4.5957,-5.8788 c 3.6337,0.6917 5.6049,3.4242 5.6049,5.9832 3e-4,1.7641 -1.1062,3.3859 -3.0447,3.3859 -1.7653,0 -3.0385,-1.2082 -3.0385,-3.1459 0,-1.4518 1.1341,-2.9732 1.1341,-4.461 0,-0.5857 -0.1721,-1.1738 -0.6558,-1.7622 z m 1.7994,4.5993 c 0,0.4836 0.3462,0.8649 0.8308,0.8649 0.5531,0 0.8994,-0.4842 0.8994,-1.0382 0,-0.7249 -0.6582,-1.7282 -1.2807,-1.7282 -0.2774,0 -0.1733,0.4152 -0.2424,0.8647 -0.035,0.3445 -0.2071,0.7593 -0.2071,1.0368 z"
               id="path3017"
               style="fill:#000000;fill-opacity:0.2" />
            <path
               inkscape:connector-curvature="0"
               d="m 80.9265,98.947 c 1.1753,0 2.5219,-6.3621 2.5219,-7.4351 3e-4,-0.2769 -0.1021,-0.4846 -0.3442,-0.4846 -1.0724,-3e-4 -2.5584,6.0521 -2.5584,7.4013 3e-4,0.2415 0.0682,0.5184 0.3807,0.5184 z m 8.4716,1.9014 c 0.8631,0 1.831,-3.3207 1.831,-5.3951 3e-4,-0.4498 -0.0691,-0.9323 -0.2774,-0.9323 -0.7255,0 -1.9364,3.4228 -1.9364,5.2898 3e-4,0.7263 0.1744,1.0376 0.3828,1.0376 z M 83.759,97.7711 c 0.3804,0 0.865,-0.4167 1.7662,-1.4172 0.0679,-0.4495 0.0679,-0.8656 0.0679,-1.3842 0,-0.6905 -0.2762,-1.4519 -0.6908,-1.4519 -1.0391,-3e-4 -1.556,2.7667 -1.556,3.4939 3e-4,0.4131 0.2062,0.7594 0.4127,0.7594 z m 4.7379,-1.4172 c 0,-0.5893 -0.1395,-0.7276 -0.2766,-0.7276 -0.3463,0 -0.7249,0.4163 -1.2786,1.3492 0.0692,1.2451 0.2766,1.7985 0.622,1.7985 0.3807,-3e-4 0.9332,-1.2113 0.9332,-2.4201 z m 2.6634,-4.0809 c 2.2827,0 3.318,1.9712 3.318,4.1844 0,0.9674 -0.2745,2.386 -0.724,2.386 -0.4492,-3e-4 -0.3804,-0.7958 -0.4495,-1.5222 -0.0692,-0.9338 -0.2434,-1.1406 -0.5546,-1.1406 -0.5876,-3e-4 -0.9674,1.3821 -0.9674,2.6628 3e-4,0.7938 0.1383,1.6937 0.7588,1.6937 0.3465,0 0.6581,-0.1732 0.8661,-0.3801 -0.138,1.589 -1.3157,2.9744 -2.9747,2.9744 -3.0426,0 -4.1841,-3.5625 -4.5283,-5.6372 -1.8335,1.9365 -3.5266,3.3542 -6.5705,3.3542 -2.8331,0 -4.1141,-2.0744 -4.1141,-4.0444 0,-0.5893 0.2074,-2.1097 0.9344,-2.1097 0.8641,0 0.103,2.8334 1.7973,2.8334 0.4157,0 1.1744,-0.3457 1.5907,-1.4851 0.2416,-0.6931 0.3804,-1.4174 0.3804,-2.0412 3e-4,-0.9344 -0.2071,-1.5204 -0.8978,-1.5204 -0.5888,0 -1.3157,0.4475 -1.557,0.6905 0.8312,-2.4899 2.8356,-3.7682 5.0462,-3.7682 2.7343,0 4.1853,2.4199 4.1853,5.1177 0,0.3789 -0.035,0.794 -0.1042,1.175 1.1757,-1.9367 2.8027,-3.4227 4.5649,-3.423 z"
               id="path3019"
               style="fill:#000000;fill-opacity:0.2" />
            <path
               inkscape:connector-curvature="0"
               d="m 84.694,101.573 c -1.4869,0 -1.5548,1.8012 -1.5548,5.4289 -1.1074,-2.3851 -2.9388,-4.9443 -5.0836,-4.9443 -1.4515,-3e-4 -2.0043,0.9691 -2.0043,2.6616 0,0.3466 0.0341,0.8662 0.1032,1.1756 0.1733,-0.5866 0.7267,-0.829 1.4166,-0.829 1.489,0 3.2862,1.1403 4.4607,2.6978 -1.3474,-0.2421 -2.6625,-0.4848 -3.7678,-0.4848 -0.6929,0 -1.3146,0.0697 -1.8332,0.3116 -1.0033,0.4483 -2.351,1.9364 -2.351,4.1841 0,0.3463 0.035,0.7255 0.1042,1.1403 1.2097,-2.6978 4.4256,-3.9076 6.5001,-3.9076 0.4157,-3e-4 0.7249,0.035 0.9682,0.0701 -1.0724,0.9664 -1.3136,2.6622 -1.3837,3.8025 -0.0332,0.5537 -0.2412,0.5893 -0.6228,0.5893 3e-4,1.1394 0.9,2.8349 0.9,3.6987 3e-4,0.3119 -0.1733,0.5881 -0.3454,0.6579 0,1.5213 1.5198,2.6281 1.5198,3.5954 0,0.2415 -0.0679,0.4495 -0.1733,0.5543 0.1054,0.6222 1.7778,1.6692 1.9942,2.1941 0.2661,0.6369 0.5651,0.7456 0.7384,0.7456 0.5878,-3e-4 1.5198,-0.6932 1.5198,-1.3157 3e-4,-0.2074 -0.1733,-0.4493 -0.3092,-0.5537 -0.6578,-0.4831 -1.0044,-1.5204 -1.2806,-2.2109 -0.2434,0 -0.5558,-0.1027 -0.6651,-0.5097 -0.1888,-0.7162 -0.1981,-2.0496 -0.4756,-2.8454 -0.4492,-0.1039 -0.6578,-0.2769 -0.6578,-1.2095 3e-4,-0.4495 0.2774,-2.2139 0.2774,-2.8367 -0.2071,0 -0.4833,-0.1386 -0.4833,-0.5537 3e-4,-1.1053 1.1074,-1.9697 1.4165,-3.3871 1.9715,1.4507 2.454,2.9376 2.454,4.2533 3e-4,0.6892 -0.103,1.3471 -0.2413,1.9708 1.4531,-0.7273 3.6317,-1.7987 3.6317,-3.9773 3e-4,-1.2807 -0.5878,-2.6973 -4.4957,-3.2507 1.2097,-0.4501 2.7325,-0.6907 4.0111,-0.6907 2.2139,0 3.4922,0.6907 3.7688,2.2459 0.4495,-0.6905 0.7958,-1.4863 0.7958,-2.2118 0,-1.6961 -1.4187,-2.7999 -3.2159,-2.7999 -2.1098,0 -3.9759,1.1041 -5.9824,2.4545 0.9009,-1.867 1.5208,-2.9732 2.629,-2.9732 0.1724,-3e-4 0.3457,0.035 0.5187,0.0694 -0.4154,-1.5216 -1.9702,-3.01 -2.8014,-3.01 z"
               id="path3021"
               style="fill:#000000;fill-opacity:0.2" />
            <path
               inkscape:connector-curvature="0"
               d="m 142.951,126.504 c 1.7315,0 3.1151,2.2469 3.1151,4.8756 0,2.8002 -1.3157,5.844 -3.6607,7.9163 -0.0347,-4.6666 -5.7474,-3.1797 -5.7474,-6.5674 3e-4,-1.4519 1.0407,-2.4216 2.2861,-2.4216 1.1076,0 1.9726,0.3119 2.5954,0.9356 -0.6228,-0.5896 -0.9344,-1.4202 -0.9344,-2.2142 3e-4,-1.3151 0.8312,-2.524 2.3459,-2.5243 z"
               id="path3023"
               style="fill:#000000;fill-opacity:0.2" />
            <path
               inkscape:connector-curvature="0"
               d="m 112.078,93.656 c 0.9003,0.865 1.694,1.2439 2.6634,1.2439 0.3825,0 0.833,-0.1023 1.0754,-0.1023 0.3115,0 0.5175,0.137 0.5175,0.3792 3e-4,0.381 -0.3463,1.0038 -0.7599,1.3504 0.4136,0.1721 0.8652,0.2418 1.3498,0.2418 1.9643,-3e-4 4.2129,-1.2463 4.2129,-4.3565 0.4166,0.551 0.659,1.6937 0.659,2.2127 0,3.7687 -2.7697,5.2206 -5.3227,5.2206 -1.6608,-3e-4 -2.4931,-0.5549 -2.7014,-0.5549 -0.6558,0 -0.6207,1.3157 -1.0703,1.2813 -0.7958,-0.1389 -1.521,-1.9021 -1.521,-3.7682 3e-4,-1.1083 0.2765,-2.283 0.8973,-3.148 z m 5.2194,-2.5242 c -0.2763,-0.4502 -1.3094,-0.6908 -1.7922,-0.6908 -1.5246,-3e-4 -2.5623,1.0709 -2.7694,2.04 -0.1379,-0.3466 -0.2424,-0.7614 -0.2424,-1.1759 3e-4,-1.5219 1.0383,-3.3881 3.5658,-3.3881 2.2064,-3e-4 3.0714,1.1751 3.3838,1.1751 0.3457,-3e-4 0.692,-0.3466 0.9692,-0.3466 0.3807,-3e-4 0.3807,0.5881 0.3807,1.0041 0,1.3822 -0.6241,3.7682 -2.181,4.6334 -0.2771,-0.5884 -0.8308,-1.2462 -1.7239,-1.6602 -0.2413,-0.1035 -0.3454,-0.3103 -0.3454,-0.5186 0,-0.381 0.3454,-0.8656 0.7548,-1.0724 z"
               id="path3025"
               style="fill:#000000;fill-opacity:0.2" />
            <path
               inkscape:connector-curvature="0"
               d="m 88.0473,83.594 c 0,1.2101 4.3213,7.123 5.1524,7.123 0.6929,-3e-4 1.2104,-1.2101 1.2104,-2.2495 0,-0.2742 -0.0701,-0.5505 -0.2063,-0.7588 -0.6228,-0.8649 -5.0141,-4.3224 -5.9835,-4.3224 -0.1038,-3e-4 -0.173,0.1042 -0.173,0.2077 z M 62.6335,80.0324 c 0,0.6923 -2.6272,3.0085 -3.5592,3.0085 -0.3454,-3e-4 -0.4507,-0.4142 -0.4507,-0.794 3e-4,-0.6911 0.3112,-1.6599 0.6928,-1.9724 0.4478,-0.4151 1.486,-0.6198 2.281,-0.6198 0.4824,0 1.0361,0.1012 1.0361,0.3777 z m 31.5706,2.0059 c 0,-2.0753 -5.6106,-5.8441 -5.6722,-7.4674 -0.0063,-0.1491 0.0751,-0.2969 0.2008,-0.4289 0.9614,-1.0138 4.9516,-1.7524 4.9516,-2.6165 0,-0.4477 -0.8312,-0.4474 -1.2457,-0.4474 -3.2147,-3e-4 -7.9179,1.1747 -7.9179,2.3153 3e-4,1.1775 4.2183,4.0471 4.2183,5.4652 3e-4,0.3798 -0.2421,0.5183 -0.6228,0.5183 -1.1742,-3e-4 -3.7334,-1.4189 -4.9429,-1.4189 -0.5537,0 -0.7623,0.3801 -0.7623,0.9353 3e-4,1.659 1.9718,4.8055 1.9718,5.7366 0,0.1044 -0.0351,0.2427 -0.1733,0.2427 -0.6229,0 -3.5596,-3.4557 -4.599,-3.4557 -0.3789,-3e-4 -0.4142,0.5175 -0.4142,1.2786 l 3e-4,1.1751 c 0,0.7952 -0.0354,1.2798 -0.4128,1.2798 -0.9011,0 -1.3157,-2.5237 -2.1797,-2.5237 -0.8991,0 -1.0724,4.4936 -1.9356,4.4936 -1.0041,0 -0.1392,-4.9446 -1.1074,-4.9446 -1.0712,0 -2.2827,3.2862 -3.0438,3.2862 -0.2751,-3e-4 -0.3442,-0.278 -0.3442,-0.5196 0,-1.002 0.5857,-2.6269 0.5857,-3.5939 0,-0.4861 -0.1383,-0.7614 -0.5519,-0.7614 -1.0733,-3e-4 -3.4242,1.7284 -4.3224,1.7284 -0.1377,0 -0.3113,-0.0685 -0.3113,-0.2083 0,-0.8275 3.7687,-3.4568 3.7687,-4.6316 3e-4,-1.1424 -5.1885,-0.3801 -5.1885,-1.6958 0,-1.1053 3.7025,-2.2468 3.7025,-3.388 3e-4,-1.0033 -4.3921,-1.451 -6.0852,-1.451 -2.0406,0 -3.1471,0.24 -3.1471,0.8275 3e-4,0.8997 4.634,1.1778 4.634,1.9715 0,0.7614 -4.8073,2.8011 -4.8073,3.9765 0,1.0376 6.7766,0.0685 6.7766,1.1424 0,1.1738 -5.9105,6.2558 -5.9105,7.9505 3e-4,0.381 0.2766,0.554 0.6558,0.554 1.7985,0 6.4642,-3.4228 7.7446,-3.4228 0.4498,0 0.4848,0.5522 0.4848,1.0371 0,0.899 -0.3103,2.2818 -0.3103,3.2853 0,0.7941 0.2071,1.3475 0.897,1.3475 1.2818,-3e-4 2.4551,-2.178 3.3212,-2.178 1.1053,0 0.4484,6.3959 2.1086,6.3959 1.4165,0 2.0044,-6.9143 2.9034,-6.9143 0.8994,-3e-4 1.627,2.0047 2.4561,2.0047 1.0364,0 0.5528,-3.4916 1.6602,-3.4916 1.2085,-3e-4 4.6669,4.1494 6.2226,4.1494 0.484,0 0.6558,-0.3807 0.6558,-0.8655 3e-4,-1.8335 -2.5572,-5.9805 -2.5572,-7.2939 0,-0.3456 0.102,-0.4495 0.4827,-0.4495 1.3487,-3e-4 5.2916,1.8661 7.158,1.8661 0.6249,0 1.0041,-0.3448 1.0044,-0.7952 z m -3.5975,-6.8458 c 0,0.6216 2.1786,1.9715 3.1818,1.9715 0.5866,0 0.7599,-0.7965 0.7599,-1.6261 0,-1.0368 -0.4474,-1.0718 -1.3486,-1.0718 -1.1406,0 -2.5934,0.3116 -2.5931,0.7264 z M 82.4813,71.665 c 0,-0.208 -1.0373,-0.416 -2.4539,-0.416 -2.2477,0 -1.9364,1.87 -3.6646,1.87 -1.7981,0 -1.3507,-1.9383 -3.6328,-1.9383 -1.3825,-3e-4 -2.6602,0.2428 -2.6602,0.5531 3e-4,0.4161 1.624,0.2428 1.624,1.3852 3e-4,1.2088 -3.4922,1.5554 -3.4922,2.2815 0,0.2412 0.2751,0.3454 0.6217,0.3454 0.7623,-3e-4 1.9705,-0.3454 2.8355,-0.3454 0.4849,-3e-4 0.9341,0.1024 0.9341,0.5525 0,0.8647 -1.8682,2.421 -1.8682,3.1124 3e-4,0.2077 0.1721,0.2777 0.3454,0.2777 0.6929,0 1.8682,-1.764 2.9747,-1.764 1.8335,0 0.6237,3.9064 1.6249,3.9064 1.0373,-3e-4 0.5878,-3.8394 2.0747,-3.8394 1.2127,-3e-4 2.1097,2.6634 2.9397,2.6634 0.2083,-2e-4 0.3804,-0.1723 0.3804,-0.4151 3e-4,-0.7243 -1.0371,-2.2133 -1.0371,-3.1803 0,-0.5878 0.4145,-0.8656 0.9679,-0.8656 0.7941,-3e-4 1.8664,0.4846 2.4531,0.4846 0.2074,0 0.4145,-0.0688 0.4145,-0.3104 3e-4,-0.8302 -3.0747,-1.7287 -3.0747,-2.7999 3e-4,-1.0729 1.6931,-1.0729 1.6931,-1.5578 z"
               id="path3027"
               style="fill:#000000;fill-opacity:0.2" />
            <path
               inkscape:connector-curvature="0"
               d="m 143.782,77.2681 c 0,3.0759 -2.2418,5.4274 -6.2921,6.0841 0.4507,0.0338 0.8661,0.0341 1.2816,0.0341 4.7342,-3e-4 6.465,-2.1426 6.465,-3.9399 0,-1.0039 -0.5536,-1.9014 -1.4545,-2.1783 z m -5.8414,3.4907 c 0,-2.4548 -5.8734,-3.0777 -5.8734,-3.6299 3e-4,-0.4486 3.28,-1.2109 4.9743,-1.2459 -2.5931,-3.3183 -6.2888,-2.9723 -6.2888,-3.5605 0,-0.3459 2.7676,-1.0388 5.3227,-1.0388 2.1439,-3e-4 4.1491,0.4845 4.1491,2.1097 0,0.9003 -0.726,1.8353 -0.726,3.2166 3e-4,0.7608 0.3786,1.4174 1.3836,1.4174 1.0748,0 1.3148,-1.1403 1.3148,-2.3521 0,-1.0009 -0.1721,-1.7623 -0.1721,-2.2469 3e-4,-1.4518 0.9961,-2.4189 2.4147,-2.4189 1.1766,0 1.454,0.516 3.1842,0.516 -0.9353,0.5555 -1.2807,1.5585 -1.2807,2.0409 0,1.454 0.9362,2.4563 0.9362,5.4304 3e-4,5.4607 -5.1164,7.3971 -11.3783,7.3971 -1.7206,0 -3.5571,-0.1382 -5.3577,-0.4133 -0.275,-0.035 -0.3451,-0.1039 -0.3451,-0.2768 0,-0.4502 2.4582,-0.6929 2.4582,-2.9038 0,-0.8659 -0.2775,-1.6946 -0.2775,-2.005 3e-4,-0.1733 0.1383,-0.2777 0.2775,-0.2777 0.5186,-3e-4 1.5578,2.0049 3.4879,2.0049 0.5148,0 1.7964,-0.1732 1.7964,-1.7634 z m 5.634,-7.6398 c 0,0.4824 0.3804,0.8625 0.8649,0.8625 0.4849,-3e-4 0.8662,-0.3798 0.8662,-0.8625 0,-0.4846 -0.3816,-0.8662 -0.8662,-0.8662 -0.4842,0 -0.8649,0.3816 -0.8649,0.8662 z"
               id="path3029"
               style="fill:#000000;fill-opacity:0.2" />
            <path
               inkscape:connector-curvature="0"
               d="m 140.503,105.066 c 0,-0.7255 -1.8353,-0.794 -2.0077,-2.8352 -0.0359,-0.3104 -0.1392,-0.8623 -0.5208,-0.8623 -0.6213,-3e-4 -0.1379,1.9017 -0.8299,1.9017 -1.5899,0 -2.1085,-3.113 -2.6964,-3.113 -0.1388,0 -0.304,0.1039 -0.304,0.5187 0,0.381 0.07,0.6229 0.07,1.0703 0,0.451 -0.1051,0.7626 -0.5196,0.7626 -0.9341,0 -1.7652,-2.1795 -2.5614,-2.1795 -0.173,0 -0.3453,0.1042 -0.3453,0.2775 0,0.4151 0.6907,1.1744 0.6907,1.5554 3e-4,0.8312 -2.2486,0.3801 -2.2486,1.073 0,0.3113 0.3101,0.4139 0.7258,0.4139 0.7279,0 1.8694,-0.3091 2.4581,-0.3091 0.3466,-3e-4 0.865,0.0685 0.865,0.5159 3e-4,0.4846 -1.2454,1.1062 -1.2454,1.5564 3e-4,0.2077 0.2071,0.3103 0.3804,0.3103 0.9344,-3e-4 2.588,-1.6239 3.7646,-1.6239 0.2074,0 0.7249,0.1035 0.7249,0.4151 3e-4,0.4483 -1.1754,1.2424 -1.1754,1.9002 0,0.1733 0.1051,0.3807 0.3122,0.3807 0.6189,-3e-4 1.4498,-1.624 2.6275,-1.624 0.4495,-3e-4 1.1074,0.173 1.4549,0.173 0.2765,-3e-4 0.3804,-0.173 0.3804,-0.2777 z m 0.8991,16.7701 c 0.5549,-1.7275 1.2465,-2.9394 2.3797,-4.8064 -1.1332,-0.5863 -4.145,-1.8325 -4.145,-3.8728 3e-4,-2.3863 2.9747,-4.2527 3.5913,-4.2527 0.2777,0 0.3466,0.2427 0.3466,0.6925 0,1.2439 -0.5879,3.2489 -0.5879,4.3216 0,0.967 0.6229,1.9026 1.1766,1.9026 0.5878,0 2.2136,-2.0747 2.2136,-4.1156 3e-4,-3.6664 -3.2181,-4.7714 -4.2141,-4.7714 -0.9338,0 -2.6302,1.5201 -6.6082,1.5201 -7.4318,0 -9.1273,-7.3624 -9.1273,-10.5795 0,-0.1386 0.0329,-0.1733 0.068,-0.1733 0.1735,-3e-4 0.9011,0.9006 3.253,0.9006 1.2118,0 2.3189,-0.3122 4.0845,-0.3122 4.1419,-3e-4 5.9772,2.8721 8.5383,6.5346 1.5488,0.967 5.2526,2.5245 5.2526,6.9155 0,3.8726 -4.1183,6.0164 -5.1143,10.1662 1.5838,-0.1724 2.5188,-3.0092 4.1449,-3.0092 0.8312,-3e-4 1.2116,0.6576 1.2116,1.6965 3e-4,1.5192 -0.8662,3.8034 -2.5261,5.22 0.0341,-0.1383 0.0338,-0.3125 0.0338,-0.519 3e-4,-0.9673 -0.3792,-2.3495 -1.4887,-2.3495 -1.7218,-3e-4 -2.2758,1.8667 -3.244,3.4207 -1.0039,-3.5254 -2.354,-6.7078 -4.7738,-8.6443 -2.4488,-1.97 -6.6722,-0.8991 -6.6722,-4.4945 0,-0.9694 0.6237,-2.3516 0.6237,-3.4578 0,-0.3801 -0.0703,-0.7264 -0.2786,-1.0032 3.3237,1.246 2.1459,3.4566 4.1895,5.7396 1.2726,1.4537 4.8007,2.8358 6.8425,8.8175 0.0341,-0.1724 0.0689,-0.6207 0.0689,-0.9323 3e-4,-5.1179 -6.7743,-10.1332 -7.3621,-12.2076 3.9348,0.4492 4.6268,1.4186 6.4962,6.6051 0.3804,1.0727 1.627,3.7358 1.627,5.0482 z"
               id="path3031"
               style="fill:#000000;fill-opacity:0.2" />
            <path
               inkscape:connector-curvature="0"
               d="m 122.488,85.2536 c -2.4231,0 -4.0142,-1.2085 -4.0142,-1.8329 0,-0.3115 0.2071,-0.5169 0.4855,-0.5169 0.7605,-3e-4 2.4213,1.1739 2.9738,1.1739 0.1404,-3e-4 0.2433,-0.0677 0.2433,-0.276 3e-4,-0.6228 -0.5875,-1.6596 -0.5875,-2.1764 0,-0.1401 0.1039,-0.2425 0.3113,-0.2425 0.9335,0 2.3177,0.3804 3.0456,0.3804 0.2418,0 0.3107,-0.1379 0.3107,-0.2777 0,-0.7608 -2.2501,-2.2468 -2.2501,-2.697 3e-4,-0.4145 2.7966,-1.0388 2.7966,-1.6931 3e-4,-0.6929 -3.8008,-0.2083 -3.8008,-0.8661 3e-4,-0.4837 0.7279,-1.3137 0.7279,-1.6935 0,-0.1736 -0.1392,-0.2418 -0.3804,-0.2418 -0.3113,-3e-4 -1.9727,0.657 -2.6655,0.657 -0.3451,-3e-4 -0.7608,-0.0689 -0.7608,-0.5543 3e-4,-0.7953 1.3498,-1.6587 3.4613,-1.6587 3.4186,0 5.4607,2.3509 5.4607,6.293 3e-4,4.979 -3.4883,6.2226 -5.3574,6.2226 z m -6.7405,-6.568 c 0,-0.3816 -1.3516,-1.1065 -1.3516,-1.5216 0,-0.0686 0.068,-0.1036 0.1721,-0.1036 0.3825,-3e-4 1.0404,0.1383 1.5599,0.1383 0.4499,0 0.5187,-1.9365 0.8581,-1.9365 0.2413,0 0.6558,1.8332 1.0392,1.8332 0.4486,0 1.2786,-0.5196 1.6252,-0.5196 0.0694,-3e-4 0.1379,0.0342 0.1379,0.1048 3e-4,0.2415 -0.8649,1.1738 -0.8649,1.4507 3e-4,0.3112 1.9385,0.6925 1.9385,0.9691 3e-4,0.346 -1.9735,0.3116 -1.9735,0.6228 0,0.2398 0.7278,1.2089 0.7278,1.5205 0,0.0697 -0.0362,0.1047 -0.1041,0.1047 -0.2775,0 -1.3498,-0.4858 -1.6611,-0.4858 -0.3813,-3e-4 -0.997,1.4178 -1.3085,1.4178 -0.103,0 -0.1721,-0.1383 -0.1721,-0.3113 l -0.0698,-1.3824 c 0,-0.1383 -0.0685,-0.2772 -0.2415,-0.2772 -0.4154,-2e-4 -1.2127,-0.035 -1.4561,-0.035 -0.173,-3e-4 -0.2424,-0.0341 -0.2424,-0.1038 3e-4,-0.2763 1.3869,-1.2433 1.3869,-1.4851 z m -1.0062,5.6677 c 0.5558,0 0.6588,1.3505 0.7638,2.1442 0.0695,0.416 0.1383,0.4495 0.3116,0.4495 0.4154,0 1.0712,-1.5898 1.5156,-1.5898 0.6558,-3e-4 2.4222,1.8329 5.3628,1.8329 4.1812,0 8.1262,-2.9403 8.1262,-8.1247 3e-4,-5.0141 -3.5317,-7.9535 -8.4037,-7.9535 -2.3165,0 -4.0138,1.1409 -4.9141,1.1409 -0.5453,0.035 -1.3756,-1.3471 -1.7919,-1.3471 -0.1721,-3e-4 -0.3457,0.3433 -0.3457,0.9323 3e-4,0.3813 0,1.5904 -0.4154,1.5904 -0.832,-3e-4 -4.0462,-2.3844 -4.0462,-1.5213 0,0.7958 2.1418,3.2169 2.1418,3.8388 0,0.6216 -2.1076,1.2109 -2.1076,1.6249 3e-4,0.7602 2.2468,0.8988 2.2468,1.8679 0,0.967 -2.3522,1.7287 -2.3522,2.4545 3e-4,0.5872 2.3522,0.1733 2.3522,0.8985 0,0.7255 -1.7282,3.1465 -1.7282,3.8364 0,0.1738 0.0342,0.1741 0.1712,0.1741 0.6567,-3e-4 2.6282,-2.2489 3.113,-2.2489 z"
               id="path3033"
               style="fill:#000000;fill-opacity:0.2" />
            <path
               inkscape:connector-curvature="0"
               d="m 99.0791,145.072 c 0,0.3113 -0.1042,0.6579 -0.3816,1.0021 -0.3783,-0.6908 -1.4519,-1.0374 -1.9365,-1.0362 -3.5613,0 -2.2127,5.1524 -6.0164,5.1524 -1.5899,-3e-4 -1.7293,-0.2083 -2.316,-0.2083 -0.2433,0 -0.3813,0.1041 -0.3813,0.3116 0,0.8999 1.2795,3.1117 4.8408,3.1117 3.5617,0 6.9859,-2.1767 6.9859,-4.877 3e-4,-0.4498 -0.1033,-0.9302 -0.3116,-1.4148 0.1383,-0.2083 0.4858,-0.3465 0.7962,-0.3465 0.5528,0 0.864,0.6249 1.3815,0.6249 0.5549,0 0.9694,-0.4166 0.9694,-0.9691 0,-0.452 -0.2412,-0.7611 -0.6557,-0.9712 0.2762,-0.2066 0.4833,-0.5528 0.4833,-0.9324 3e-4,-0.5899 -0.4154,-1.1403 -1.1083,-1.1403 -0.3112,0 -0.5174,0.1051 -0.759,0.3424 -0.0676,-0.6189 -0.4142,-1.2064 -1.0724,-1.2064 -0.5183,-3e-4 -0.8999,0.3795 -0.8999,0.9691 3e-4,0.5483 0.3813,1.0002 0.3816,1.588 z"
               id="path3035"
               style="fill:#000000;fill-opacity:0.2" />
            <path
               inkscape:connector-curvature="0"
               d="m 80.1304,138.643 c 2.7666,0.6878 4.1491,2.1747 4.4253,3.9399 0.2766,1.6931 0.622,3.0789 1.2786,3.7687 0.8653,0.9704 2.5593,1.8302 4.0471,1.8302 1.2448,0 2.2459,-0.4103 2.2459,-1.5527 0,-1.2457 -1.6943,-4.0462 -4.1832,-4.0462 -0.2413,0 -0.5537,0.0362 -0.8991,0.0362 -0.3116,0 -0.7611,-0.0691 -1.0374,-0.3115 -0.5525,-0.4855 -0.7258,-3.0789 -1.7631,-4.6337 -1.1403,-1.7294 -2.3851,-2.2136 -4.0791,-2.2136 -1.2083,-3e-4 -2.5593,0.6557 -2.5593,1.6248 3e-4,0.5888 0.3116,1.0024 2.5243,1.5579 z m 9.6481,7.7437 c -1.0392,0 -2.5943,-1.1083 -2.5943,-1.7312 3e-4,-0.5199 0.4845,-0.7961 0.8631,-0.7961 0.8662,0 2.4198,1.0745 2.4198,1.9736 0,0.2412 -0.1733,0.5537 -0.6886,0.5537 z"
               id="path3037"
               style="fill:#000000;fill-opacity:0.2" />
            <path
               inkscape:connector-curvature="0"
               d="m 86.5954,119.451 c 0,-2.2136 5.2575,-3.388 5.2575,-6.1206 3e-4,-0.4501 -0.173,-1.2438 -0.4846,-1.8316 1.8314,1.0014 3.18,2.6972 3.18,4.0794 0,2.3862 -2.4892,3.493 -2.4892,4.9802 0,1.7288 2.6625,2.005 2.6625,4.1489 0,1.7619 -2.5242,3.8031 -2.5242,6.085 3e-4,1.7628 1.2456,3.2138 3.1459,3.4565 -0.6217,0.1383 -1.1745,0.2424 -1.7623,0.2424 -3.4931,0 -7.0888,-2.8684 -7.0888,-6.2932 3e-4,-1.6938 0.7261,-3.1786 1.8314,-4.2506 0.9703,0.829 1.9373,1.3815 2.5602,1.3815 0.5528,0 0.7961,-0.2753 0.7961,-0.6902 0,-1.281 -5.0845,-2.4551 -5.0845,-5.1877 z m 11.0309,17.4612 c -1.1858,0.5424 -1.6593,0.4496 -1.6593,1.6611 0,0.4484 -0.1042,1.0344 -0.1042,1.3469 0,0.4142 0.0692,0.6578 0.5528,0.6578 1.2457,-3e-4 3.2169,-2.1088 3.2169,-3.9079 3e-4,-0.486 -0.2772,-0.6899 -0.5887,-0.6899 -0.2772,-3e-4 -0.5867,0.5516 -1.4175,0.932 z m -0.1383,-2.4901 c 0,-1.5554 -3.2162,-1.5904 -3.2162,-3.9417 3e-4,-0.5887 0.3795,-1.5902 1.1415,-2.664 0.3128,1.7981 1.0365,2.7328 2.5943,3.3215 3.0759,1.1395 3.4913,2.8682 3.4913,4.7032 3e-4,3.1126 -2.1786,6.9846 -7.7796,6.9846 -4.4954,-3e-4 -7.7117,-4.012 -7.7117,-7.4004 0,-0.9341 0.2413,-1.9702 0.83,-1.9702 0.5199,0 0.6919,0.4133 1.1065,0.8278 1.5572,1.5579 3.2509,1.9715 5.706,1.9715 2.2127,0 3.8379,-0.8982 3.8379,-1.8323 z"
               id="path3039"
               style="fill:#000000;fill-opacity:0.2" />
            <path
               inkscape:connector-curvature="0"
               d="m 73.0014,135.171 c 0.0844,0.7216 -0.4321,1.3735 -1.1529,1.4579 -0.7216,0.0844 -1.3764,-0.4331 -1.459,-1.1538 -0.0841,-0.7228 0.4322,-1.377 1.1538,-1.4614 0.7219,-0.0847 1.3746,0.4333 1.4581,1.1573 z m -6.4618,1.36 c 0.1464,1.1805 1.2475,2.0757 2.4908,1.9374 0.4486,-0.0497 0.8652,-0.1721 1.1427,-0.3454 0.2765,1.1053 1.2044,1.8167 2.459,1.653 1.2735,-0.1661 2.1397,-1.1693 2.0014,-2.4491 -0.0359,-0.3442 -0.1042,-0.5546 -0.2071,-0.7959 0,0 0.1679,-0.0176 0.2948,-0.0413 1.249,-0.2361 2.0912,-1.2381 1.9858,-2.4488 -0.1368,-1.2448 -1.2537,-2.1684 -2.4168,-2.025 -0.4504,0.055 -0.8671,0.2274 -1.1445,0.469 -0.3125,-1.0362 -1.2867,-1.9365 -2.6179,-1.7168 -1.2023,0.1993 -1.9972,1.2193 -1.8778,2.5129 0.0197,0.2098 0.0691,0.4495 0.1733,0.6905 3e-4,-3e-4 -0.2042,0.0302 -0.3442,0.0508 -1.0086,0.1494 -2.1026,1.1652 -1.9395,2.5087 z"
               id="path3041"
               style="fill:#000000;fill-opacity:0.2" />
          </g>
        </g>
      </g>
    </g>
  </g>
  <g
     inkscape:groupmode="layer"
     id="layer2"
     inkscape:label="Layer 2" />
  <style
     id="style1600"
     type="text/css">
	.st0{opacity:0.2;}
	.st1{fill:#FFFFFF;}
</style>
  <style
     id="style1743"
     type="text/css">
	.st0{opacity:0.2;}
	.st1{fill:#FFFFFF;}
</style>
  <style
     id="style2949"
     type="text/css">
	.st0{opacity:0.2;}
</style>
</svg>
